<svg width="25" height="23" viewBox="0 0 25 23" fill="none" xmlns="http://www.w3.org/2000/svg">
<path d="M12.6189 11.3766C12.63 11.7648 12.2279 12.0497 11.8927 11.8486C11.5213 11.628 11.2029 11.3179 10.9906 10.9437C10.7979 10.6086 11.0939 10.212 11.4849 10.2343C11.7978 10.2511 12.6105 11.0694 12.6217 11.3766H12.6189Z" fill="#82E2B3"/>
<path d="M17.6404 10.2339C18.0482 10.2451 18.2996 10.6948 18.0454 11.0243C17.8136 11.3232 17.5343 11.5997 17.2299 11.8259C16.9199 12.0605 16.4898 11.8147 16.4674 11.4293C16.4479 11.0858 17.2885 10.2256 17.6404 10.2339Z" fill="#82E2B3"/>
<path d="M16.563 16.3618C17.2692 16.3621 17.8413 16.9348 17.8413 17.6411V18.814C17.8412 19.5202 17.2692 20.093 16.563 20.0933H12.5239C11.8176 20.0932 11.2447 19.5203 11.2446 18.814L11.2446 17.6411C11.2446 16.9347 11.8175 16.3619 12.5239 16.3618H16.563ZM13.2505 17.8276C12.9349 17.8388 12.736 18.0182 12.7388 18.3394C12.7417 18.6547 12.9463 18.8529 13.2534 18.8501C13.5575 18.8471 13.7361 18.6461 13.7808 18.2944L13.7837 18.2915C13.7111 18.0458 13.5826 17.8166 13.2505 17.8276ZM15.856 17.8247C15.5543 17.8359 15.3415 17.9792 15.3247 18.3032C15.3082 18.6185 15.4904 18.8306 15.8003 18.8501C16.1073 18.8695 16.3248 18.6795 16.3472 18.3696C16.3695 18.0569 16.1826 17.8722 15.856 17.8247Z" fill="#82E2B3"/>
<path d="M1.41369 21.2994C2.58391 20.1627 3.75412 19.026 4.92155 17.8893C5.12822 17.6882 5.32931 17.4759 5.54436 17.2832C5.83482 17.0235 6.0806 17.2413 6.34592 17.4173C6.8654 17.7608 7.41001 18.1267 8.0412 17.7608C8.2786 17.624 8.49086 17.4285 8.70591 17.2609C9.43764 16.7023 10.1694 16.1409 10.9011 15.5824C11.3228 15.2584 10.9067 14.5322 10.4794 14.859C9.82865 15.3561 9.17791 15.8533 8.52716 16.3504C8.26463 16.5515 8.00769 16.7721 7.73119 16.9593C7.34019 17.2246 6.94639 16.8084 6.61683 16.5906C6.09177 16.2443 5.49409 16.1996 4.99696 16.6464C4.85173 16.7777 4.71208 16.9229 4.57244 17.0598L2.41633 19.1545C1.88289 19.6712 1.35224 20.1879 0.818803 20.7073C0.430592 21.0844 1.02548 21.6765 1.41089 21.2994H1.41369Z" fill="#C30010"/>
<path d="M0.000637485 19.3053C0.0453236 19.9924 0.0900097 20.6795 0.134696 21.3637C0.140282 21.4615 0.14866 21.562 0.154246 21.6598C0.16821 21.8804 0.335783 22.0843 0.573179 22.0787C1.18761 22.0647 1.79926 22.048 2.41369 22.034C2.50027 22.034 2.58685 22.0284 2.67343 22.0284C2.89127 22.0228 3.10353 21.8385 3.09236 21.6095C3.08119 21.3805 2.90803 21.185 2.67343 21.1906C2.05899 21.2045 1.44735 21.2213 0.832917 21.2352C0.746338 21.2352 0.659758 21.2408 0.573179 21.2408L0.992111 21.6598C0.947425 20.9727 0.902739 20.2857 0.858053 19.6014C0.852467 19.5036 0.844089 19.4031 0.838503 19.3053C0.824538 19.0875 0.656965 18.8752 0.41957 18.8864C0.204518 18.8948 -0.0133269 19.0707 0.000637485 19.3053Z" fill="#C30010"/>
<path d="M7.58884 9.08356C6.64764 9.47456 5.79022 10.2789 5.68688 11.3374C5.66733 11.5441 5.67571 11.7536 5.83491 11.9044C5.92149 11.9854 6.02203 12.058 6.12537 12.1167C6.49961 12.3345 6.9353 12.4295 7.36261 12.4602C8.25634 12.5244 9.16402 12.287 9.9963 11.9798C10.2086 11.9016 10.3538 11.6949 10.2896 11.4631C10.2337 11.2592 9.98793 11.0917 9.77287 11.1699C9.22547 11.3709 8.61103 11.5553 8.06084 11.6083C7.85975 11.6279 7.65866 11.6363 7.45757 11.6251C7.4073 11.6251 7.35703 11.6195 7.30955 11.6139C7.29 11.6139 7.13639 11.5916 7.24811 11.6083C7.17549 11.5972 7.10288 11.5832 7.03026 11.5692C6.96603 11.5553 6.90458 11.5385 6.84035 11.519C6.79845 11.505 6.60295 11.424 6.73701 11.4855C6.65881 11.4491 6.57781 11.4128 6.5052 11.3654C6.49403 11.357 6.427 11.3011 6.41583 11.3039C6.42141 11.3039 6.53034 11.3737 6.43817 11.3207C6.42141 11.3123 6.40745 11.2927 6.39349 11.2788L6.51637 11.5748C6.51078 11.2983 6.56664 11.0805 6.7007 10.8487C6.82638 10.628 6.96603 10.48 7.19225 10.2873C7.21459 10.2677 7.23973 10.2482 7.26207 10.2286C7.21739 10.265 7.24531 10.2398 7.27604 10.2203C7.32072 10.1868 7.36541 10.156 7.41289 10.1253C7.49109 10.0722 7.57208 10.0248 7.65587 9.97729C7.71452 9.94377 7.77317 9.91305 7.83182 9.88512C7.8765 9.86278 8.00498 9.80971 7.81227 9.89071C8.02173 9.80413 8.16976 9.61421 8.10552 9.37402C8.05246 9.17572 7.8011 8.99418 7.58884 9.08076V9.08356Z" fill="#82E2B3"/>
<path d="M9.88765 6.03365C8.77608 5.91914 7.56676 5.26839 6.95233 4.19871C6.55574 3.50886 6.40492 2.70729 6.45799 1.9169C6.48592 1.48679 6.63115 1.11254 6.71773 0.696401C6.79034 0.347288 6.55574 -0.0213759 6.17032 0.000967366C5.7849 0.0233106 5.52516 0.467383 5.31849 0.735502C5.0811 1.04551 4.86884 1.37508 4.69568 1.72419C4.35215 2.41404 4.13989 3.14857 4.06169 3.91383C3.90808 5.41641 4.38008 6.92458 5.33804 8.08643C6.41889 9.40189 8.0639 10.128 9.74521 10.2258C10.2842 10.2565 10.2814 9.41865 9.74521 9.38793C8.41022 9.30973 7.1227 8.75673 6.19267 7.78759C5.26263 6.81845 4.78785 5.43317 4.88839 4.06465C4.93866 3.38318 5.13416 2.7045 5.44697 2.09565C5.60057 1.79681 5.77653 1.50634 5.98041 1.24102C6.05302 1.14327 6.30159 0.939384 6.33231 0.827668L5.87428 0.579099L5.84076 0.688022C5.78211 0.796946 5.76535 0.956142 5.74022 1.07624C5.42741 2.52296 5.71229 4.07023 6.65908 5.2265C7.45505 6.19843 8.65599 6.73746 9.89044 6.86593C10.4267 6.92179 10.4211 6.08392 9.89044 6.02806L9.88765 6.03365Z" fill="#82E2B3"/>
<path d="M14.4957 4.69849H13.144C12.6356 4.69849 12.0575 4.63425 11.5743 4.813C11.0912 4.99174 10.6359 5.36879 10.1975 5.65646C9.64167 6.02233 9.33725 6.51947 9.33166 7.19535C9.32608 7.94664 9.29256 8.7091 9.34283 9.4576C9.42104 10.5608 9.56627 11.6668 9.78132 12.7532C10.0718 14.2167 10.4851 15.9399 11.5771 17.0292C11.9598 17.409 12.5519 16.8169 12.1692 16.4371C11.2979 15.5685 10.9571 14.1972 10.6946 13.0381C10.4488 11.9517 10.2924 10.8457 10.2003 9.73689C10.1472 9.08615 10.1667 8.43261 10.1667 7.77627C10.1667 7.30706 10.0802 6.77641 10.5019 6.45523C10.8426 6.19549 11.2252 5.97206 11.5883 5.74024C12.024 5.46095 12.5435 5.53636 13.0406 5.53636H14.4929C15.0319 5.53636 15.0319 4.69849 14.4929 4.69849H14.4957Z" fill="#82E2B3"/>
<path d="M21.1345 9.87099C21.0368 9.8291 21.0256 9.82072 21.1094 9.86261C21.168 9.89054 21.2239 9.92126 21.2826 9.95198C21.3635 9.99667 21.4445 10.0441 21.5227 10.0972C21.5674 10.1279 21.6121 10.1587 21.6568 10.1922C21.6652 10.1978 21.7573 10.2704 21.6847 10.2117C21.7099 10.2313 21.7322 10.2508 21.7546 10.2704C21.8523 10.3542 21.9473 10.4407 22.0338 10.5385C22.0562 10.5636 22.0785 10.5888 22.1009 10.6139C22.1483 10.667 22.0981 10.6055 22.1232 10.6418C22.1651 10.6977 22.2014 10.7535 22.2377 10.815C22.3802 11.0552 22.436 11.273 22.4304 11.5607L22.5533 11.2647C22.5533 11.2647 22.517 11.2926 22.5086 11.3065C22.4639 11.3875 22.4332 11.2702 22.531 11.2898C22.517 11.2898 22.4528 11.3429 22.4416 11.3512C22.3662 11.3987 22.288 11.435 22.2098 11.4713C22.3438 11.4099 22.1483 11.4909 22.1065 11.5048C22.045 11.5244 21.9808 11.5411 21.9165 11.5551C21.8439 11.5719 21.7713 11.583 21.6987 11.5942C21.8104 11.5775 21.6568 11.597 21.6373 11.5998C21.587 11.6054 21.5367 11.6082 21.4892 11.611C21.2881 11.6193 21.0871 11.611 20.886 11.5942C20.3358 11.5411 19.7213 11.3596 19.1739 11.1557C18.9617 11.0775 18.7159 11.2423 18.6572 11.449C18.593 11.6836 18.7354 11.8847 18.9505 11.9657C20.1068 12.393 21.5758 12.7449 22.7432 12.1472C22.9778 12.0271 23.2487 11.8512 23.2655 11.5635C23.3102 10.8876 22.9387 10.2313 22.4584 9.78441C22.1372 9.48557 21.7629 9.24259 21.3552 9.07222C21.1457 8.98564 20.8943 9.16718 20.8385 9.36547C20.7715 9.60566 20.9223 9.79279 21.1317 9.88216L21.1345 9.87099Z" fill="#82E2B3"/>
<path d="M19.1458 6.87129C20.1987 6.76237 21.2125 6.36298 21.9945 5.63962C23.0866 4.63417 23.5613 3.09528 23.3854 1.64018C23.3658 1.4726 23.3407 1.30503 23.3072 1.14025C23.2793 0.997807 23.2541 0.707345 23.162 0.58725L22.7039 0.835819C22.7402 0.87492 22.7793 0.916813 22.8129 0.955914C22.8743 1.02294 22.9329 1.09277 22.9888 1.16259C23.1117 1.3162 23.2234 1.47819 23.3295 1.64297C23.7038 2.23507 23.9579 2.88581 24.0836 3.57287C24.3322 4.91346 24.0054 6.34343 23.1676 7.42429C22.2403 8.61686 20.788 9.3095 19.291 9.39608C18.7548 9.4268 18.752 10.2647 19.291 10.234C22.3576 10.0552 24.9662 7.68682 24.9997 4.53084C25.0164 2.98077 24.402 1.46702 23.3686 0.321924C23.1285 0.0565976 22.757 -0.150078 22.4498 0.165521C22.1426 0.48112 22.3939 0.902849 22.4749 1.25196C22.6565 2.03677 22.6146 2.86347 22.3464 3.62593C22.0504 4.46381 21.436 5.15365 20.654 5.57259C20.1959 5.81837 19.5731 5.99153 19.143 6.03621C18.6124 6.09207 18.6068 6.92994 19.143 6.87408L19.1458 6.87129Z" fill="#82E2B3"/>
<path d="M14.4704 5.53645H15.6853C16.0987 5.53645 16.5958 5.46384 17.0036 5.56438C17.4644 5.67889 17.9169 6.09783 18.3079 6.35478C18.5229 6.49722 18.71 6.64803 18.7743 6.91336C18.8106 7.06138 18.7966 7.22337 18.7966 7.37419C18.7966 8.08079 18.8329 8.79298 18.7826 9.4968C18.71 10.5134 18.576 11.5272 18.3777 12.5271C18.1179 13.8398 17.78 15.4513 16.7969 16.4316C16.4143 16.8114 17.0064 17.4063 17.389 17.0237C18.3581 16.0601 18.7743 14.5883 19.0703 13.2952C19.3412 12.1082 19.5116 10.8905 19.6093 9.67554C19.668 8.95218 19.6373 8.22602 19.6373 7.49987C19.6373 6.83516 19.5507 6.22072 18.9698 5.78782C18.5983 5.50853 18.1933 5.26275 17.7995 5.01139C17.2494 4.65948 16.674 4.693 16.054 4.693H14.4704C13.9314 4.693 13.9314 5.53087 14.4704 5.53087V5.53645Z" fill="#82E2B3"/>
<path d="M11.929 5.27654V7.22319C11.929 7.44104 12.1217 7.6533 12.3479 7.64213C12.5741 7.63096 12.7668 7.4578 12.7668 7.22319V5.27654C12.7668 5.05869 12.5741 4.84643 12.3479 4.8576C12.1217 4.86877 11.929 5.04193 11.929 5.27654Z" fill="#82E2B3"/>
<path d="M14.1019 5.27654V7.22319C14.1019 7.44104 14.2946 7.6533 14.5209 7.64213C14.7471 7.63096 14.9398 7.4578 14.9398 7.22319V5.27654C14.9398 5.05869 14.7471 4.84643 14.5209 4.8576C14.2946 4.86877 14.1019 5.04193 14.1019 5.27654Z" fill="#82E2B3"/>
<path d="M16.2517 5.22624V7.1729C16.2517 7.39075 16.4444 7.60301 16.6706 7.59184C16.8969 7.58066 17.0896 7.4075 17.0896 7.1729V5.22624C17.0896 5.0084 16.8969 4.79614 16.6706 4.80731C16.4444 4.81848 16.2517 4.99164 16.2517 5.22624Z" fill="#82E2B3"/>
</svg>
