<svg width="97" height="112" viewBox="0 0 97 112" fill="none" xmlns="http://www.w3.org/2000/svg">
<path d="M79.5209 1.79662C80.2457 -0.372297 82.4496 -0.243925 84.1715 0.454936C91.5883 3.47891 97.8779 9.17277 101.297 16.4602C106.034 26.5517 104.375 37.6255 98.4437 46.1179C99.3998 46.2636 100.344 46.4802 101.266 46.7653C104.521 47.7714 107.739 50.003 109.055 53.2648C109.626 54.6481 108.756 56.0827 107.93 57.1737C104.233 62.0553 97.6634 63.8922 91.7441 64.6578C92.3314 66.7036 92.8676 68.762 93.3411 70.8301C94.7804 77.1347 96.0788 84.4146 94.2814 90.8199C95.597 91.4479 96.7162 92.5101 97.3989 93.9253L100.046 99.4113C101.64 102.715 100.253 106.686 96.949 108.28L78.0621 117.392C74.758 118.986 70.7866 117.6 69.1925 114.296L66.5458 108.81C65.9398 107.554 65.7658 106.201 65.9631 104.919C63.7072 104.033 61.6102 102.751 59.6544 101.224C57.707 105.068 55.7627 108.921 53.8142 112.764C53.1866 114.033 52.6349 115.426 51.8335 116.601C49.707 119.737 46.3347 119.255 43.1301 118.821C41.4922 118.596 39.8506 118.131 39.0782 120.002C38.5072 121.388 38.046 122.835 37.5332 124.241C34.7063 132.004 31.8654 139.773 29.0258 147.542C30.8381 146.612 32.6492 145.682 34.4672 144.754C35.5517 144.198 36.8023 144.722 37.3714 145.767C37.9404 146.813 37.3638 148.155 36.3575 148.673C35.9527 148.868 35.56 149.089 35.1551 149.284C32.313 150.736 29.4902 152.195 26.6481 153.647C25.5505 154.208 24.307 153.632 23.744 152.632C23.4973 152.187 23.2312 151.736 22.9846 151.292C21.2317 148.192 19.4725 145.08 17.7133 141.967C17.1186 140.901 17.7403 139.587 18.7271 139.063C19.8122 138.475 21.0745 139.089 21.6313 140.077C21.878 140.521 22.144 140.973 22.3907 141.417C23.2466 142.93 24.1041 144.447 24.9623 145.966C26.1977 142.572 27.4289 139.195 28.671 135.812L34.0281 121.15C34.3724 120.195 34.6982 119.201 35.0812 118.259C36.398 115.047 39.2946 113.908 42.5317 114.343C44.5646 114.618 47.3452 115.675 48.5752 113.552C49.4461 112.053 50.1504 110.442 50.9245 108.909C52.7206 105.364 54.5164 101.818 56.3125 98.2723C53.4512 95.4561 50.9255 92.2466 48.6726 89.2546C47.9797 88.3336 47.2986 87.402 46.6288 86.4618C43.7358 89.2798 40.45 91.8531 36.7006 93.3409C34.6327 94.1614 32.38 94.7004 30.1381 94.526C29.5226 94.4848 28.8883 94.3717 28.3007 94.1883C27.2162 93.842 26.7046 92.8814 26.3297 91.8709C24.8702 87.8995 25.8176 83.6271 27.9231 80.0686C24.2988 79.8506 20.7163 79.0053 17.3626 77.453C10.2607 74.1805 4.64993 68.1914 1.978 60.8172C0.617123 57.0617 -0.0474766 53.1473 0.00265095 49.1458C0.0247981 47.1225 0.273609 45.1022 0.684359 43.1168C1.04599 41.3965 1.25943 38.7336 3.0115 37.7595C4.76369 36.7853 6.69315 37.9801 7.14126 39.7768C7.67517 41.9182 7.83982 43.9962 8.67947 46.0705C10.2147 49.8869 12.7291 53.296 16.1405 55.6275C21.2405 59.1159 28.0491 59.5308 33.4226 57.7857C33.6811 56.8923 34.078 56.0056 34.6057 55.1235C36.0073 52.7887 37.2857 49.9981 39.1421 48.0719C40.9986 46.1457 43.848 45.1415 46.2253 43.9946L52.1124 41.1548C52.2064 41.0916 52.3069 41.0304 52.4176 40.977L59.8243 37.4032C62.7239 36.0043 65.339 34.5496 68.706 34.9538C71.115 35.2409 73.5639 35.4771 75.9313 35.9452C76.5646 36.0676 77.1413 36.249 77.6709 36.4792C79.5274 35.2557 81.835 33.1832 83.3223 31.1383C86.0344 27.4145 87.3519 22.8014 86.846 18.2147C86.3796 14.0437 84.7098 10.0825 82.0899 6.82157C80.9234 5.37156 78.7962 3.96579 79.5209 1.79662ZM79.8877 106.126C78.9936 105.141 77.8754 104.359 76.3462 105.161C74.8957 105.925 74.3722 107.209 75.1098 108.704C75.8349 110.174 77.2358 110.642 78.6663 109.936C80.0837 109.236 80.4657 107.891 79.8807 106.144L79.8877 106.126ZM92.056 100.707C91.4548 99.1938 90.1639 98.7541 88.5286 99.2691C87.1432 100.002 86.471 101.147 87.1234 102.7C87.7571 104.213 89.086 104.796 90.58 104.188C92.0605 103.586 92.6508 102.207 92.056 100.707ZM74.1146 40.09C71.856 39.7903 69.0233 38.9458 66.6891 39.2578L70.2619 46.6644C70.7913 47.7617 70.2809 49.0059 69.2481 49.5686C68.2153 50.1312 66.8355 49.5736 66.3439 48.5548L62.6064 40.8067C61.7103 41.2811 60.835 41.7783 60.003 42.1797L56.5164 43.8613L60.323 51.7509C60.8522 52.8479 60.3416 54.0923 59.3092 54.6551C58.2764 55.2178 56.8956 54.6601 56.404 53.6412L52.5975 45.7507L47.6327 48.1474C47.2086 48.352 46.7749 48.5454 46.3414 48.7407L50.1592 56.6545C50.6884 57.7515 50.1778 58.9959 49.1454 59.5587C48.1125 60.1214 46.7318 59.5637 46.2402 58.5448L42.5561 50.9078C42.0781 51.3241 41.6518 51.8049 41.2999 52.3772C40.1249 54.2807 38.8391 56.1896 37.8316 58.1732C36.5843 60.6267 38.1863 62.9133 39.2449 65.1076C40.7258 68.1772 42.1093 71.2777 43.8257 74.2014C46.7585 79.1792 49.9858 83.9993 53.5866 88.5261C57.4009 93.3184 62.0476 98.9132 68.0175 101.046C68.4897 100.61 69.0333 100.235 69.6425 99.9406L88.5304 90.8286C88.9694 90.6168 89.4205 90.4585 89.8759 90.3495C92.1113 83.5993 90.0919 75.435 88.3686 68.801C87.04 63.6772 85.3792 58.6326 83.425 53.714C82.0721 50.3089 80.2953 47.0595 78.7009 43.7547C78.3608 43.0495 78.0603 42.2609 77.5567 41.6506C76.6576 40.5546 75.4418 40.2709 74.1146 40.09ZM41.147 78.1472C38.6192 79.044 35.9909 79.6516 33.3346 79.938C33.2656 80.0185 33.1482 80.1558 33.0841 80.2388C32.8729 80.5016 32.6681 80.7779 32.4695 81.0669C32.1848 81.4779 31.9126 81.8829 31.6666 82.3074C31.514 82.5581 31.3742 82.8023 31.2409 83.0597C31.1519 83.2035 31.0847 83.3639 31.1622 83.2024C31.1089 83.3218 31.051 83.4448 31.0008 83.5628C30.3776 84.9744 30.0581 85.9821 29.9681 87.2976C29.8903 88.3361 29.9996 89.2393 30.3327 90.1652C30.7439 90.2081 31.1646 90.1992 31.5747 90.1931C30.8099 90.2082 31.9054 90.1461 32.1335 90.1169C32.4781 90.0634 32.8036 90.0033 33.1355 89.9237C33.4616 89.8371 33.7873 89.7487 34.1092 89.6533C34.2349 89.6115 34.4922 89.5267 34.5427 89.5024C34.7772 89.4214 35.0248 89.3345 35.2598 89.2212C36.2254 88.8197 37.1473 88.3267 38.0436 87.7816C40.1404 86.5085 42.2387 84.6791 44.1198 82.8167C43.0976 81.2794 42.1065 79.7216 41.147 78.1472ZM29.9158 90.0891C29.9432 90.0944 29.9708 90.1005 29.9979 90.1062C30.0584 90.1072 29.9999 90.0995 29.9158 90.0891ZM33.3317 79.9378C33.3169 79.9394 33.3021 79.9412 33.2873 79.9428C33.2031 80.0696 33.109 80.1929 33.0052 80.309C33.173 80.1189 33.2754 80.0018 33.3317 79.9378ZM50.9569 73.6287C52.4577 73.0013 58.1055 74.9949 58.8509 76.4066L58.8378 76.4126C59.766 78.203 58.5274 80.4429 56.5062 80.2586C54.2713 80.0648 52.083 79.333 50.2459 78.0617C48.5885 76.929 49.078 74.4066 50.9569 73.6287ZM4.4679 47.1325C4.40866 47.8168 4.37211 48.5033 4.35478 49.1881C4.2656 52.7414 4.88275 56.3564 6.18519 59.657C8.80278 66.2844 14.1487 71.6922 20.6851 74.1264C26.5503 76.3107 33.0056 76.2774 38.9081 74.3357C37.1097 71.0902 35.6172 67.6305 34.0292 64.2753C33.7099 63.5992 33.4722 62.93 33.3132 62.2675C27.9416 63.6499 22.1762 63.4608 17.0884 61.0961C11.1329 58.3273 6.76241 53.179 4.4679 47.1325ZM79.746 59.739C81.6783 58.8712 83.8688 60.4077 83.4237 62.5226C83.0139 64.4432 82.3315 66.3664 81.4182 68.1112C80.4977 69.9079 77.9318 69.7288 76.9576 67.9768C76.091 66.4142 78.0813 60.4939 79.746 59.739ZM96.1445 50.2019C95.8487 50.1921 95.5624 50.1793 95.2733 50.1766L95.2824 50.2163C95.2048 50.2199 95.1272 50.2204 95.0503 50.2188C93.1721 52.1437 91.0364 53.8581 88.6796 55.3035C89.3016 57.0007 89.895 58.7107 90.4531 60.4323C93.0461 60.1229 95.7298 59.6131 97.9953 58.7776C98.9736 58.4022 99.9335 57.9875 100.855 57.4946C101.071 57.3745 101.3 57.2479 101.522 57.1084C101.608 57.0505 102.281 56.6142 101.797 56.9442C102.111 56.7282 102.426 56.512 102.728 56.2698C102.996 56.0596 103.259 55.8358 103.502 55.6057C103.666 55.4459 104.398 54.6265 103.91 55.2163C104.171 54.8978 104.43 54.5773 104.661 54.223C104.127 53.3495 103.474 52.6901 102.559 52.0831C102.251 51.8777 101.955 51.6983 101.633 51.5316C101.434 51.4186 101.807 51.592 101.466 51.4512C101.305 51.3841 101.143 51.3176 100.982 51.2504C100.357 50.9887 99.7175 50.7974 99.0714 50.6261C98.9711 50.5984 98.8697 50.5733 98.7653 50.5475C98.687 50.5318 98.4674 50.4854 98.4369 50.4811C98.1524 50.4252 97.8739 50.3822 97.5957 50.3393C97.1104 50.2676 96.6241 50.2282 96.1445 50.2019ZM104.972 53.6521C104.705 53.7347 104.732 53.9215 104.803 53.968C104.851 53.872 104.91 53.7592 104.955 53.6941C104.96 53.6804 104.966 53.6664 104.972 53.6521ZM87.5365 7.08471C91.3916 13.4192 92.5084 21.4452 89.7433 28.4262C88.0009 32.8546 84.9144 36.5475 81.1074 39.3302C81.7975 40.2659 82.3771 41.3278 82.9168 42.4464C84.3213 45.3577 85.8298 48.2187 87.0877 51.1905C93.1492 47.3202 97.7351 41.2175 99.2567 34.1268C100.737 27.1811 99.0385 19.7558 94.8511 14.0467C92.8451 11.2978 90.3822 8.95355 87.5365 7.08471Z" fill="white" fill-opacity="0.1"/>
</svg>
