<svg width="25" height="23" viewBox="0 0 25 23" fill="none" xmlns="http://www.w3.org/2000/svg">
<path d="M7.50386 23.0006H2.20713C1.72482 23.0006 1.33337 22.6187 1.33337 22.1481V18.3832C1.33337 18.153 1.42949 17.9314 1.599 17.7711L4.18707 15.3294C4.52085 15.0139 5.0486 15.0088 5.38762 15.3175L8.09627 17.7694C8.27452 17.9314 8.37587 18.1564 8.37587 18.3934V22.1481C8.37587 22.6187 7.98443 23.0006 7.50211 23.0006H7.50386Z" fill="#C5D8E3"/>
<path d="M15.8169 23.0004H10.5202C10.0379 23.0004 9.64642 22.6184 9.64642 22.1478V14.8023C9.64642 14.5721 9.74254 14.3504 9.91205 14.1902L12.5001 11.7485C12.8339 11.433 13.3616 11.4279 13.7007 11.7365L16.4093 14.1884C16.5876 14.3504 16.6889 14.5755 16.6889 14.8125V22.1478C16.6889 22.6184 16.2975 23.0004 15.8152 23.0004H15.8169Z" fill="#C5D8E3"/>
<path d="M24.128 23.0004H18.8313C18.349 23.0004 17.9575 22.6185 17.9575 22.1479V13.2677C17.9575 13.0375 18.0536 12.8159 18.2231 12.6556L20.8112 10.2139C21.145 9.89847 21.6727 9.89336 22.0118 10.202L24.7204 12.6539C24.8987 12.8159 25 13.041 25 13.278V22.1479C25 22.6185 24.6086 23.0004 24.1263 23.0004H24.128Z" fill="url(#paint0_linear_290_619)"/>
<path d="M21.5084 8.43046C21.4612 8.43046 21.4123 8.43046 21.3651 8.43046C21.3232 8.43046 21.3057 8.41512 21.304 8.37249C21.304 8.3077 21.304 8.24461 21.304 8.17981C21.304 8.16447 21.2987 8.15765 21.283 8.15424C21.0541 8.09797 20.8601 7.98543 20.7028 7.81492C20.6941 7.80469 20.6836 7.79446 20.6749 7.78423C20.6469 7.75013 20.6486 7.72796 20.6801 7.69727C20.7203 7.65806 20.764 7.61884 20.8042 7.57962C20.8461 7.5404 20.8898 7.50119 20.9317 7.46197C20.9789 7.41764 21.0051 7.41593 21.0558 7.45856C21.1187 7.50971 21.1799 7.56428 21.2515 7.6069C21.3651 7.6734 21.484 7.7058 21.615 7.67852C21.7216 7.65805 21.7793 7.59326 21.781 7.49266C21.781 7.45515 21.7671 7.42616 21.7408 7.40059C21.6867 7.34943 21.6203 7.31874 21.5504 7.29487C21.4088 7.24713 21.269 7.19768 21.1379 7.12777C21.0209 7.06468 20.9143 6.98625 20.8409 6.87371C20.6486 6.57873 20.7587 6.20873 21.0838 6.05527C21.1449 6.02628 21.2079 6.00411 21.2743 5.99218C21.3005 5.98706 21.3057 5.97683 21.3057 5.95296C21.304 5.8984 21.3057 5.84384 21.3057 5.78927C21.3057 5.74153 21.3284 5.72107 21.3756 5.72107C21.463 5.72107 21.5521 5.72107 21.6395 5.72107C21.6919 5.72107 21.7199 5.74835 21.7199 5.7995C21.7199 5.84895 21.7199 5.9001 21.7199 5.94955C21.7199 5.97001 21.7251 5.97854 21.7478 5.98365C21.9331 6.01946 22.0956 6.1013 22.2354 6.22578C22.307 6.28887 22.307 6.32126 22.2406 6.38947C22.1707 6.46108 22.1026 6.53269 22.0327 6.60431C21.9925 6.64693 21.9628 6.64864 21.9173 6.61113C21.8649 6.5685 21.8125 6.52587 21.7531 6.49348C21.657 6.44062 21.5556 6.42527 21.4473 6.45255C21.4228 6.45937 21.3983 6.4679 21.3774 6.48325C21.311 6.52928 21.3022 6.61965 21.3599 6.67592C21.3966 6.71343 21.4438 6.7356 21.4909 6.75265C21.5993 6.79016 21.7076 6.82597 21.8142 6.86519C21.9348 6.90781 22.0519 6.95726 22.155 7.03399C22.2913 7.1363 22.3647 7.271 22.3734 7.4398C22.3909 7.75695 22.2004 7.98543 21.9505 8.09456C21.8859 8.12355 21.8177 8.14401 21.7478 8.15765C21.7286 8.16106 21.7199 8.16788 21.7199 8.18834C21.7199 8.24631 21.7199 8.30429 21.7199 8.36226C21.7199 8.41171 21.7024 8.43046 21.6517 8.43046C21.6045 8.43046 21.5574 8.43046 21.5102 8.43046H21.5084Z" fill="#82E2B3"/>
<path d="M23.5601 7.09543C23.5496 7.94627 23.0079 8.73061 22.1778 9.01877C21.3477 9.30693 20.3901 9.05287 19.8291 8.37766C19.2682 7.70244 19.221 6.75782 19.6736 6.03145C20.1262 5.30508 21.0192 4.91802 21.8702 5.08853C22.8506 5.28462 23.5479 6.12352 23.5601 7.09543C23.5636 7.42451 24.0878 7.42451 24.0843 7.09543C24.0704 6.02804 23.3976 5.0766 22.3718 4.69806C21.346 4.31953 20.1489 4.63498 19.4604 5.45172C18.7719 6.26846 18.6426 7.4876 19.2228 8.41858C19.8029 9.34956 20.9056 9.80311 21.9821 9.60191C23.2019 9.37343 24.0704 8.2924 24.0861 7.09543C24.0896 6.76634 23.5653 6.76634 23.5618 7.09543H23.5601Z" fill="#82E2B3"/>
<path d="M0.452428 16.2414C1.59006 15.1894 2.72944 14.1374 3.86708 13.0853L9.25118 8.10986C9.64962 7.74156 10.0446 7.36814 10.4482 7.00325C10.9987 6.50707 11.8532 6.44227 12.4474 6.91118C12.9612 7.31699 13.3212 7.84216 13.9957 8.0229C14.7104 8.21557 15.4566 8.00243 15.9861 7.50796C16.1556 7.34938 16.3251 7.1874 16.4946 7.02712C17.2723 6.29223 18.0499 5.55563 18.8258 4.82073C20.3409 3.38675 21.8578 1.95276 23.3729 0.518782L23.462 0.435232C23.7049 0.205045 23.3344 -0.156435 23.0915 0.0737526C21.7739 1.32018 20.4563 2.5683 19.1386 3.81473L16.5645 6.2496L15.7852 6.9862C15.5388 7.2198 15.2993 7.43293 14.9551 7.52842C14.5077 7.65289 14.0167 7.56764 13.641 7.29823C13.419 7.13966 13.2268 6.92652 13.0293 6.74237C12.4037 6.15923 11.5614 5.89494 10.7296 6.22914C10.1809 6.4491 9.74049 6.95551 9.31584 7.34768C7.60153 8.93171 5.88721 10.5157 4.17289 12.1015C2.8308 13.3411 1.49045 14.5807 0.148359 15.8203L0.0802062 15.8834C-0.164446 16.1102 0.206027 16.4716 0.45068 16.2449L0.452428 16.2414Z" fill="white"/>
<path d="M20.5543 0.537651H23.3241L23.062 0.281887V2.85658C23.062 3.18566 23.5863 3.18566 23.5863 2.85658V0.281887C23.5863 0.143774 23.4657 0.026123 23.3241 0.026123L20.5543 0.026123C20.217 0.026123 20.217 0.537651 20.5543 0.537651Z" fill="white"/>
<defs>
<linearGradient id="paint0_linear_290_619" x1="17.9593" y1="16.4869" x2="25.0018" y2="16.4869" gradientUnits="userSpaceOnUse">
<stop stop-color="#9BCB9E"/>
<stop offset="1" stop-color="#78C1C4"/>
</linearGradient>
</defs>
</svg>
