<svg width="82" height="126" viewBox="0 0 82 126" fill="none" xmlns="http://www.w3.org/2000/svg">
<path d="M15.9064 117.827C16.4493 115.57 18.6699 114.092 20.9572 114.463L39.1935 117.371C40.3953 117.565 41.4457 118.239 42.0998 119.242L52.4611 135.142C53.7597 137.134 53.1558 139.832 51.1134 141.163L28.6916 155.775C26.6492 157.106 23.9374 156.569 22.6388 154.576L12.2492 138.634C11.614 137.659 11.4093 136.455 11.6847 135.309L15.9064 117.827ZM41.2277 79.7226C41.7706 77.4658 43.9912 75.988 46.2785 76.3594L64.5148 79.2666C65.7165 79.4607 66.7671 80.1341 67.4211 81.1377L87.6633 112.2C88.9618 114.193 88.3588 116.891 86.3166 118.222L86.3234 118.217L63.8937 132.833C61.8513 134.164 59.1397 133.628 57.841 131.635L37.5705 100.529C36.9352 99.5545 36.7305 98.3506 37.006 97.2041L41.2277 79.7226ZM55.0744 0.048811C55.6124 -0.100646 56.2196 0.0985159 56.5285 0.572249L63.634 11.4756C64.5414 12.869 62.3213 14.3153 61.4132 12.9219L55.7736 4.26756C53.4823 13.8205 51.1861 23.3773 48.8957 32.9297C47.6381 38.1828 46.3774 43.4481 45.1125 48.706C44.837 49.8525 44.5665 51.0063 44.2863 52.1455C43.4087 55.7006 40.8368 58.6628 37.2785 59.8193C33.9234 60.9153 30.9498 59.6844 27.6545 59.3838C23.8445 59.0378 20.4043 61.6708 19.4425 65.291C18.7401 67.9501 18.0987 70.6212 17.4279 73.2803L8.35856 109.207C6.44443 116.801 4.52269 124.401 2.60856 131.995L2.61052 132.015C2.20036 133.65 -0.365373 133.142 0.0441096 131.507L0.159344 131.051C2.42166 122.098 4.67632 113.15 6.93864 104.197C9.82198 92.7515 12.7098 81.3125 15.5978 69.874C16.3137 67.0415 16.7817 63.6819 18.4982 61.2363C21.0983 57.5259 25.3942 56.3206 29.6525 57.0635C30.9969 57.2983 32.3992 57.6704 33.7765 57.7295C36.111 57.8335 38.4258 56.8388 39.9767 55.0771C41.1707 53.7229 41.5966 52.1601 41.9953 50.4912L43.2629 45.2207L47.4435 27.8066C49.3181 19.9978 51.189 12.1833 53.0627 4.37303L44.3957 10.0224C42.9675 10.9532 41.5554 8.78717 42.9836 7.85643L54.0119 0.668928C54.2472 0.26416 54.6564 0.0677207 55.0744 0.048811ZM72.1857 50.289C72.7286 48.0322 74.9493 46.5536 77.2365 46.9248L95.4728 49.833C96.6746 50.027 97.725 50.7005 98.3791 51.7041L122.857 89.2646C124.155 91.2574 123.552 93.9551 121.51 95.2861L121.517 95.2812L99.0871 109.897C97.0447 111.228 94.333 110.692 93.0343 108.699L68.5295 71.0957C67.8942 70.121 67.6895 68.917 67.965 67.7705L72.1857 50.289ZM63.5724 22.625C68.8867 21.414 74.2827 23.5114 77.3127 27.8681C77.3598 27.9216 77.4056 27.9802 77.4474 28.0459C80.684 33.158 79.9899 40.1322 75.4552 44.4658C71.4521 48.2884 65.531 49.4105 60.505 47.0693C55.4792 44.7281 52.6628 39.2091 53.3244 33.8506C53.9861 28.4921 58.1842 23.853 63.5724 22.625ZM75.2209 29.4971C72.487 25.4153 67.219 23.7871 62.5265 25.6621C58.4522 27.2886 55.7384 31.3919 55.8263 35.7168C55.9142 40.0417 58.7214 43.9114 62.9601 45.2226C67.1988 46.5338 71.9552 44.9669 74.675 41.456C77.3097 38.0548 77.5132 33.4285 75.4289 29.8408L75.2209 29.4971ZM63.2951 28.9775C63.5169 28.8331 63.7106 28.8717 63.8517 29.0879C63.9882 29.2972 64.1294 29.5143 64.2658 29.7236C64.3223 29.8103 64.3684 29.832 64.4787 29.791C65.3618 29.4315 66.2757 29.3294 67.2111 29.4707C67.6886 29.5401 67.7777 29.6773 67.6847 30.1494C67.5864 30.6454 67.496 31.1368 67.3976 31.6328C67.3451 31.9242 67.2238 32.0139 66.9279 31.9805C66.5883 31.9446 66.2484 31.9088 65.9074 31.9355C65.3546 31.977 64.8836 32.192 64.5002 32.6064C64.4154 32.7028 64.3347 32.8059 64.2883 32.9287C64.1341 33.3069 64.3468 33.7138 64.7463 33.793C65.0051 33.8505 65.2661 33.8138 65.5129 33.7558C66.0751 33.6157 66.633 33.4689 67.1926 33.3408C67.8206 33.1886 68.4526 33.0749 69.1008 33.1152C69.9601 33.1723 70.6429 33.54 71.1457 34.2305C72.0948 35.5251 71.9192 37.0182 71.1623 38.1699C70.9685 38.4711 70.7361 38.7464 70.4777 38.9971C70.4059 39.0645 70.3881 39.1175 70.4445 39.2041C70.6044 39.4495 70.7641 39.695 70.924 39.9404C71.0605 40.1498 71.038 40.2771 70.8234 40.417C70.6238 40.5471 70.4244 40.6775 70.2248 40.8076L70.217 40.8125C70.0173 40.9426 69.8102 41.0779 69.6105 41.208C69.433 41.3237 69.3165 41.3072 69.1916 41.1318C69.0128 40.8574 68.8382 40.5898 68.6593 40.3154C68.6171 40.2506 68.5761 40.2367 68.5002 40.2656C67.3755 40.6591 66.2431 40.7177 65.1066 40.4297C65.0414 40.4105 64.9687 40.3961 64.9035 40.3769C64.6912 40.3097 64.6373 40.2106 64.6857 39.9941C64.7477 39.7171 64.8249 39.4303 64.8869 39.1533C64.9563 38.8715 65.0333 38.5845 65.1027 38.3027C65.1802 37.9851 65.2862 37.9056 65.6183 37.9463C66.0259 37.9893 66.4356 38.0514 66.8566 38.0342C67.5209 38.0023 68.1133 37.8118 68.5929 37.3349C68.9879 36.9541 69.0536 36.5197 68.7834 36.0889C68.68 35.9304 68.5408 35.8465 68.3595 35.8105C67.989 35.7434 67.6228 35.7969 67.2609 35.8887C66.5298 36.0771 65.8008 36.2537 65.0529 36.3193C64.3831 36.3752 63.7152 36.3364 63.0939 36.0625C61.4661 35.3437 60.9116 33.4735 61.8644 31.9267C62.0434 31.6353 62.2481 31.3675 62.4963 31.1338C62.5931 31.0398 62.5875 30.9819 62.5216 30.8808C62.3637 30.6547 62.22 30.4185 62.0695 30.1875C61.9381 29.9856 61.9783 29.8361 62.1779 29.706C62.5478 29.465 62.9252 29.2186 63.2951 28.9775Z" fill="white" fill-opacity="0.1"/>
</svg>
