<svg width="85" height="88" viewBox="0 0 85 88" fill="none" xmlns="http://www.w3.org/2000/svg">
<g clip-path="url(#clip0_290_863)">
<path d="M77.8823 58.5723L86.4698 60.9956C87.3176 61.2348 87.8125 62.1105 87.5752 62.9515L78.6468 94.5915C78.4095 95.4324 77.5298 95.9202 76.682 95.681L68.0945 93.2577C67.2467 93.0185 66.7518 92.1428 66.9891 91.3018L75.9175 59.6618C76.1548 58.8209 77.0345 58.3331 77.8823 58.5723Z" fill="white" fill-opacity="0.1"/>
<path d="M73.9468 64.4562C73.9015 64.4434 73.853 64.4419 73.8061 64.4347C73.684 64.4124 73.6654 64.4132 73.8118 64.4363C73.6994 64.4228 73.5943 64.4053 73.4819 64.3918C72.8731 64.317 72.2563 64.2704 71.6477 64.2382C69.514 64.1274 67.3693 64.2077 65.2528 64.4476C63.8139 64.6057 62.3867 64.8521 60.9735 65.157C59.5604 65.4619 58.1563 65.7998 56.6648 65.6458C56.0713 65.5814 55.4729 65.4914 54.8786 65.4087C49.6358 64.6996 44.3873 63.989 39.1429 63.2856C38.1831 63.1543 37.2106 63.2196 36.3053 63.5889C34.1438 64.4652 33.0648 66.9452 33.6577 69.1568C33.9537 70.2535 32.2415 70.6863 31.9512 69.5913C31.3864 67.4968 31.9449 65.149 33.3777 63.5393C34.6514 62.1031 36.6665 61.3553 38.5804 61.4647C40.3932 61.5637 42.2254 61.9412 44.0212 62.1871C47.2135 62.6208 50.4017 63.0473 53.594 63.4811C54.477 63.6028 55.3656 63.7262 56.2502 63.8424C58.5384 64.1423 60.6883 63.3719 62.9237 63.0139C66.6445 62.4199 70.6746 62.0951 74.4193 62.7818C75.5355 62.9876 75.0541 64.6716 73.9436 64.4675L73.9468 64.4562Z" fill="white" fill-opacity="0.1"/>
<path d="M47.0149 75.0492L36.3712 72.0457C35.0004 71.6589 33.534 71.3725 32.1964 70.8677C31.4945 70.6028 30.8417 69.8605 30.2768 69.3917C26.954 66.6463 23.6297 63.9065 20.3069 61.1611C17.3957 58.7563 14.4828 56.3571 11.5716 53.9523C11.4531 53.8521 11.333 53.7575 11.2088 53.6558C11.1836 53.6365 11.1544 53.6101 11.1293 53.5909C11.1349 53.5925 11.4539 53.7189 11.0762 53.6487C10.0992 53.4701 9.19676 53.4823 8.36709 54.1035C7.99372 54.3864 7.67904 54.7647 7.47447 55.1862C7.37298 55.3942 7.29981 55.6101 7.2493 55.8325C7.19879 56.0548 7.28902 56.602 7.18481 56.7545C7.13111 56.8365 6.91333 56.4596 7.09983 56.7306C7.18616 56.8581 7.30151 56.9695 7.40393 57.0833L8.50815 58.3716C11.3411 61.6825 14.1797 64.9949 17.011 68.3114C19.5968 71.3281 22.1752 74.3488 24.7609 77.3654C25.8733 78.6681 27.0151 79.8882 28.5011 80.7989C29.9871 81.7095 31.6225 82.1771 33.2823 82.6455L51.0746 87.6663C51.7657 87.8613 52.2637 87.7652 53.0182 87.7355C55.4974 87.6404 57.971 87.5437 60.4486 87.4542C62.9262 87.3648 65.3084 87.2666 67.7319 87.1739C68.8693 87.1309 68.857 88.8867 67.7268 88.9257C62.627 89.1184 57.5257 89.3168 52.4259 89.5095C51.7271 89.5368 51.2334 89.531 50.599 89.3519L35.0328 84.9593C33.7752 84.6045 32.5177 84.2496 31.2602 83.8948C28.482 83.0987 26.0269 81.5263 24.1471 79.3458C21.9964 76.8462 19.8562 74.3313 17.7128 71.8277C14.6172 68.2122 11.5273 64.5983 8.43178 60.9828L5.93058 58.0567C5.38742 57.4242 5.35972 56.6338 5.47408 55.8168C5.75985 53.8289 7.34099 52.17 9.343 51.8371C10.3827 51.6634 11.6502 51.7663 12.4902 52.4523C12.8237 52.7223 13.1557 52.998 13.482 53.272C14.8853 54.4324 16.2902 55.5871 17.6991 56.7491C21.439 59.8366 25.1846 62.9258 28.9245 66.0134L32.5208 68.9815C32.649 69.0905 32.7861 69.1899 32.9071 69.3029C33.2091 69.5762 32.8423 69.1208 32.6479 69.1812C32.8955 69.1055 33.5995 69.4498 33.8374 69.5169L47.4947 73.3708C48.5879 73.6793 48.1123 75.365 47.019 75.0565L47.0149 75.0492Z" fill="white" fill-opacity="0.1"/>
<path d="M69.3011 63.8854C67.8236 60.4959 64.0826 58.7123 60.5048 59.7531C60.1321 59.8603 59.698 59.665 59.5104 59.333C58.8217 58.0892 57.5433 57.1582 56.1249 56.9399C55.2863 56.8125 54.4079 56.9347 53.6251 57.2597C53.3478 57.3756 53.0811 57.5187 52.8226 57.6763C52.7412 57.7261 52.6656 57.7776 52.5899 57.829C52.408 57.9536 52.717 57.7254 52.5521 57.8548C51.9784 58.3056 51.0558 58.021 51.057 57.2145C51.0539 54.235 49.1345 51.4792 46.1955 50.6681C43.2565 49.8569 40.2282 51.2044 38.6743 53.7202C38.3572 54.2374 37.7076 54.2421 37.2854 53.8743C34.3606 51.3443 29.7445 51.3399 26.8309 53.7329C26.4013 54.0848 25.737 54.0551 25.4465 53.5242C24.6901 52.1521 23.3539 50.9924 21.85 50.5135C20.6432 50.1305 19.3765 50.1552 18.1779 50.5449C17.7746 50.6738 17.3869 50.8556 17.0213 51.0678C16.869 51.1523 16.7208 51.2439 16.5783 51.3372C16.5172 51.3806 16.4576 51.4183 16.3964 51.4617C16.5437 51.3516 16.2756 51.5429 16.3964 51.4617C16.0448 51.7326 15.4781 51.8335 15.1495 51.4375C13.6685 49.6425 10.8295 50.2973 10.7078 52.7441C10.6533 53.8691 8.88941 53.8567 8.94392 52.7316C9.03147 50.991 10.0346 49.4299 11.7201 48.8318C13.4055 48.2337 15.3005 48.8655 16.4212 50.2251L15.1744 50.2009C17.1362 48.7101 19.703 48.0877 22.1218 48.7703C24.1497 49.3425 25.979 50.8354 26.9892 52.6735L25.6048 52.4648C29.363 49.3759 34.8546 49.4636 38.553 52.6547L37.1641 52.8088C39.1192 49.6297 43.0031 47.9594 46.6728 48.9768C50.3425 49.9941 52.8209 53.4779 52.8266 57.2285L51.3316 56.5883C54.4219 54.1542 59.1119 54.9802 61.049 58.475L60.0545 58.0549C64.326 56.8095 69.0547 58.9506 70.8325 63.0315C71.2817 64.0621 69.7487 64.9216 69.2955 63.8838L69.3011 63.8854Z" fill="white" fill-opacity="0.1"/>
<path d="M52.1411 38.6359C54.5553 39.2262 60.7912 40.4035 67.5371 37.5633C79.294 32.6125 81.946 19.9422 82.1795 18.7463C80.7395 17.9759 71.6307 13.2823 61.3941 17.1152C58.5565 18.1768 56.2666 19.6599 54.4729 21.1617L55.0347 27.9265L52.0237 38.5967" fill="white" fill-opacity="0.1"/>
<path d="M47.9495 49.7617L53.9985 28.3256C54.0556 28.1234 54.1473 27.9066 54.1761 27.6963C54.1294 28.035 54.1362 27.6426 54.1301 27.5559C54.1122 27.381 54.1072 27.2037 54.0949 27.0304C54.0602 26.5899 54.0183 26.1534 53.9577 25.7177C53.1225 19.6402 49.9688 13.9336 44.9772 10.232C41.0832 7.34356 36.2056 5.5789 31.3804 5.2971L32.2334 4.65819C31.0298 7.8613 30.5407 11.3934 30.6133 14.7989C30.7618 21.4895 33.6806 27.8335 38.9885 32.0612C41.3158 33.913 43.9971 35.3126 46.8275 36.2266C47.2816 36.3729 47.5726 36.8372 47.4394 37.3092L43.9384 49.7157L43.0921 48.5973C44.9942 48.77 46.9004 48.95 48.8025 49.1228C49.9286 49.2283 49.9292 50.9816 48.7975 50.8745C46.8953 50.7018 44.9891 50.5218 43.087 50.349C42.526 50.2999 42.0757 49.8149 42.2406 49.2305L45.7416 36.824L46.3534 37.9066C40.0118 35.8684 34.4495 31.5022 31.4446 25.5282C28.7966 20.2616 28.3253 14.2382 29.377 8.51716C29.6454 7.04598 30.0067 5.57068 30.5356 4.17303C30.6654 3.82141 30.9853 3.51131 31.3886 3.53412C35.6965 3.78522 40.0127 5.11238 43.7267 7.29483C49.5231 10.7019 53.6706 16.3977 55.2207 22.8893C55.4902 24.0148 55.6749 25.1589 55.8023 26.3111C55.8654 26.9112 55.9984 27.61 55.8732 28.2056C55.7024 29.0491 55.3991 29.8856 55.1644 30.7172L49.6561 50.2372C49.3501 51.3217 47.6507 50.8421 47.9568 49.7577L47.9495 49.7617Z" fill="white" fill-opacity="0.1"/>
<path d="M48.6564 31.9563C46.8667 29.2613 45.077 26.5663 43.2832 23.8641C40.4239 19.5631 37.5718 15.258 34.7125 10.9569C34.0511 9.96346 33.3953 8.97159 32.7338 7.97811C32.0723 6.98463 33.6493 6.18602 34.2708 7.12578C36.0606 9.82076 37.8503 12.5157 39.6441 15.2179L48.2147 28.1251C48.8762 29.1186 49.532 30.1105 50.1935 31.104C50.8549 32.0974 49.278 32.8961 48.6564 31.9563Z" fill="white" fill-opacity="0.1"/>
</g>
<defs>
<clipPath id="clip0_290_863">
<rect width="81" height="78" fill="white" transform="matrix(-0.962415 -0.271581 -0.271581 0.962415 99.139 21.9981)"/>
</clipPath>
</defs>
</svg>
