<svg width="24" height="23" viewBox="0 0 24 23" fill="none" xmlns="http://www.w3.org/2000/svg">
<g clip-path="url(#clip0_290_854)">
<path d="M3.11641 12.0802H0.472606C0.211593 12.0802 0 12.2891 0 12.5467L0 22.2408C0 22.4985 0.211593 22.7074 0.472606 22.7074H3.11641C3.37742 22.7074 3.58901 22.4985 3.58901 22.2408V12.5467C3.58901 12.2891 3.37742 12.0802 3.11641 12.0802Z" fill="#82E2B3"/>
<path d="M3.76512 14.0651C3.77907 14.0651 3.79302 14.0686 3.80698 14.0703C3.8436 14.0738 3.84883 14.0755 3.80523 14.0703C3.83837 14.0755 3.86976 14.0789 3.90289 14.0841C4.08252 14.1116 4.26214 14.1478 4.43828 14.1874C5.05563 14.3268 5.66078 14.5214 6.24499 14.7589C6.64261 14.919 7.02976 15.1032 7.4082 15.3029C7.78663 15.5026 8.15983 15.711 8.59756 15.7867C8.77195 15.816 8.94983 15.8383 9.12597 15.8625C10.6781 16.0811 12.2319 16.2997 13.784 16.5201C14.0683 16.5597 14.3403 16.6561 14.5688 16.8334C15.1146 17.2552 15.2228 18.0454 14.8757 18.6255C14.7031 18.913 15.1565 19.173 15.3274 18.8855C15.657 18.3363 15.6866 17.6253 15.4076 17.0538C15.16 16.5442 14.6455 16.1706 14.0909 16.0484C13.566 15.9313 13.0132 15.8917 12.4813 15.8177C11.5361 15.6851 10.5926 15.5508 9.64741 15.4183C9.38582 15.3821 9.12248 15.346 8.86089 15.3081C8.18425 15.21 7.63316 14.8192 7.02453 14.5386C6.01131 14.072 4.88821 13.6571 3.76512 13.5521C3.43029 13.5211 3.43203 14.0376 3.76512 14.0686V14.0651Z" fill="#C4C4C4"/>
<path d="M10.5927 19.2281H13.8695C14.2916 19.2281 14.7328 19.2643 15.1548 19.2281C15.3763 19.2092 15.6222 19.0508 15.821 18.963C16.9894 18.45 18.1579 17.9387 19.3263 17.4256C20.35 16.9763 21.3737 16.5287 22.3974 16.0794C22.4392 16.0605 22.4811 16.0432 22.5247 16.0243C22.5334 16.0209 22.5438 16.0157 22.5526 16.0122C22.5508 16.0122 22.4497 16.0226 22.563 16.0329C22.856 16.0604 23.1124 16.1362 23.299 16.3789C23.3827 16.4891 23.442 16.6217 23.4664 16.7577C23.4786 16.8248 23.4821 16.892 23.4786 16.9591C23.4751 17.0262 23.4053 17.1743 23.4228 17.2259C23.4315 17.2535 23.5239 17.164 23.4489 17.2259C23.4141 17.2552 23.3722 17.2776 23.3338 17.3017L22.9153 17.5789C21.841 18.2916 20.765 19.0043 19.6908 19.7188C18.7107 20.3678 17.7323 21.0185 16.7522 21.6676C16.3302 21.9482 15.9064 22.203 15.4094 22.3424C14.9124 22.4819 14.4084 22.4836 13.8974 22.4836H8.41974C8.20698 22.4836 8.07269 22.4164 7.85993 22.3476C7.16062 22.1221 6.46304 21.8965 5.76373 21.6727C5.06441 21.4489 4.393 21.2303 3.70937 21.0099C3.38849 20.9066 3.25072 21.4059 3.56986 21.5075C5.0086 21.9706 6.44735 22.4354 7.88609 22.8985C8.08316 22.9622 8.22442 23 8.41974 23H13.2121C13.5992 23 13.9864 23 14.3735 23C15.2298 22.9966 16.0564 22.747 16.7679 22.2787C17.5824 21.7416 18.395 21.1993 19.2077 20.6604C20.3814 19.8823 21.5533 19.1042 22.727 18.326L23.6757 17.6959C23.8814 17.5599 23.9529 17.3378 23.9861 17.0968C24.0646 16.5098 23.7472 15.9124 23.2031 15.6576C22.9205 15.525 22.5508 15.4527 22.2561 15.5801C22.1393 15.6301 22.0224 15.6817 21.9073 15.7334C21.4138 15.9503 20.9202 16.1655 20.425 16.3824C19.11 16.9591 17.7934 17.5358 16.4784 18.1125L15.2141 18.6669C15.1688 18.6875 15.1217 18.7048 15.0781 18.7271C14.9699 18.7805 15.1112 18.6807 15.1618 18.7134C15.0973 18.6721 14.8688 18.7134 14.7956 18.7134H10.5909C10.2544 18.7134 10.2544 19.2298 10.5909 19.2298L10.5927 19.2281Z" fill="#C4C4C4"/>
<path d="M5.13582 14.2751C5.82991 13.4316 7.0402 13.225 7.97669 13.8069C8.07435 13.8671 8.21386 13.8465 8.29408 13.7673C8.59055 13.4694 9.03002 13.3076 9.45205 13.3593C9.70144 13.3903 9.9421 13.4953 10.1392 13.6502C10.2089 13.7053 10.2734 13.7673 10.3345 13.8327C10.3537 13.8534 10.3711 13.874 10.3885 13.8947C10.4304 13.9446 10.3606 13.8551 10.3973 13.905C10.5246 14.0789 10.8106 14.072 10.8751 13.843C11.1158 12.9977 11.8848 12.3694 12.7882 12.3745C13.6916 12.3797 14.4467 13.0046 14.6873 13.843C14.7362 14.0152 14.921 14.0685 15.071 13.998C16.1086 13.5142 17.4253 13.8826 18.0636 14.795C18.1578 14.9293 18.3496 14.9741 18.4752 14.8467C18.8013 14.5179 19.2756 14.2958 19.743 14.2803C20.1179 14.2682 20.4772 14.3767 20.7876 14.5833C20.8923 14.6522 20.9882 14.7348 21.0754 14.8243C21.112 14.8605 21.1469 14.8983 21.18 14.9362C21.194 14.9534 21.2079 14.9689 21.2219 14.9861C21.1887 14.9431 21.2498 15.0188 21.2219 14.9861C21.3003 15.0912 21.4538 15.1652 21.5794 15.0791C22.1461 14.6883 22.903 15.1015 22.7408 15.8056C22.6658 16.1293 23.1698 16.267 23.2448 15.9433C23.3599 15.4424 23.1995 14.919 22.767 14.6143C22.3345 14.3096 21.7433 14.3371 21.3143 14.6332L21.6718 14.7262C21.2323 14.146 20.5504 13.7638 19.8058 13.7638C19.1815 13.7638 18.5397 14.041 18.1037 14.4817L18.5153 14.5334C17.6921 13.3558 16.1191 12.9409 14.8077 13.5504L15.1913 13.7053C14.8896 12.6465 13.9165 11.8615 12.7882 11.8563C11.6599 11.8512 10.6728 12.6414 10.3694 13.7053L10.8472 13.6433C10.1618 12.7051 8.75797 12.5639 7.92437 13.4006L8.24177 13.361C7.1239 12.6655 5.6032 12.8944 4.76785 13.9102C4.55684 14.1667 4.92481 14.5334 5.13757 14.2751H5.13582Z" fill="#C4C4C4"/>
<path d="M12.061 8.48392C11.3251 8.4581 9.4521 8.29283 7.75699 6.94657C4.80277 4.60009 5.0661 0.792003 5.09575 0.433919C5.56836 0.330626 8.54351 -0.271919 11.1542 1.63557C11.8779 2.16408 12.4115 2.76835 12.8022 3.33819L12.0976 5.21296V8.4822" fill="url(#paint0_linear_290_854)"/>
<path d="M12.361 11.9769V5.40915C12.361 5.34717 12.3522 5.27831 12.361 5.21633C12.347 5.31618 12.3767 5.20428 12.3854 5.18018C12.4046 5.13197 12.4203 5.08205 12.4377 5.03385C12.483 4.91162 12.5301 4.79111 12.5824 4.67232C13.3097 3.01446 14.6682 1.64754 16.3894 0.996795C17.7323 0.488936 19.2652 0.378757 20.6638 0.685194L20.472 0.435568C20.5574 1.44096 20.4127 2.4825 20.118 3.44313C19.5372 5.32995 18.1944 6.89657 16.3406 7.67127C15.5279 8.01042 14.6507 8.1929 13.7701 8.22561C13.6288 8.23078 13.5085 8.33924 13.5085 8.48385V12.285L13.8398 12.0354C13.2835 11.9321 12.7254 11.8306 12.1691 11.7273C11.8395 11.667 11.6983 12.1645 12.0296 12.2248C12.5859 12.3281 13.144 12.4297 13.7003 12.5329C13.8642 12.5639 14.0317 12.4624 14.0317 12.2833V8.48212L13.7701 8.74036C15.7424 8.66977 17.68 7.87614 19.0176 6.42142C20.1965 5.13886 20.8155 3.46723 20.976 1.75945C21.0178 1.32045 21.0335 0.872843 20.9952 0.433846C20.9865 0.323667 20.9202 0.210044 20.8033 0.184221C19.5547 -0.0895069 18.2171 -0.0585189 16.9824 0.263412C15.0553 0.766107 13.4143 2.05039 12.4499 3.7685C12.2825 4.06633 12.1377 4.37621 12.0087 4.69298C11.9424 4.85825 11.8482 5.0459 11.836 5.22494C11.8169 5.47801 11.836 5.73968 11.836 5.99447V11.9752C11.836 12.3074 12.3592 12.3074 12.3592 11.9752L12.361 11.9769Z" fill="#C4C4C4"/>
<path d="M13.5922 6.86721C14.3194 6.24573 15.0466 5.62424 15.7756 5.00104C16.937 4.00942 18.0968 3.01609 19.2582 2.02447C19.5268 1.7955 19.7936 1.56653 20.0622 1.33757C20.3307 1.1086 19.9453 0.755681 19.6924 0.972597C18.9652 1.59408 18.238 2.21556 17.509 2.83876L14.0264 5.81534C13.7578 6.0443 13.491 6.27327 13.2225 6.50224C12.9539 6.7312 13.3393 7.08412 13.5922 6.86721Z" fill="#C4C4C4"/>
</g>
<defs>
<linearGradient id="paint0_linear_290_854" x1="12.8039" y1="4.37284" x2="5.07657" y2="4.37284" gradientUnits="userSpaceOnUse">
<stop stop-color="#9BCB9E"/>
<stop offset="1" stop-color="#78C1C4"/>
</linearGradient>
<clipPath id="clip0_290_854">
<rect width="24" height="23" fill="white"/>
</clipPath>
</defs>
</svg>
