<svg width="23" height="24" viewBox="0 0 23 24" fill="none" xmlns="http://www.w3.org/2000/svg">
<g clip-path="url(#clip0_290_782)">
<path d="M2.98656 13.2847H0.452914C0.202776 13.2847 0 13.4896 0 13.7424V23.2536C0 23.5064 0.202776 23.7113 0.452914 23.7113H2.98656C3.23669 23.7113 3.43947 23.5064 3.43947 23.2536V13.7424C3.43947 13.4896 3.23669 13.2847 2.98656 13.2847Z" fill="#82E2B3"/>
<path d="M3.60832 15.2337C3.62169 15.2337 3.63506 15.237 3.64843 15.2387C3.68353 15.2421 3.68854 15.2438 3.64676 15.2387C3.67852 15.2438 3.7086 15.2472 3.74035 15.2522C3.91249 15.2793 4.08463 15.3147 4.25343 15.3536C4.84506 15.4904 5.42499 15.6813 5.98487 15.9144C6.36592 16.0714 6.73694 16.2522 7.0996 16.4481C7.46227 16.644 7.81992 16.8484 8.23941 16.9227C8.40653 16.9514 8.577 16.9734 8.7458 16.9971C10.2332 17.2116 11.7223 17.4261 13.2098 17.6423C13.4822 17.6811 13.7429 17.7757 13.9618 17.9497C14.4849 18.3635 14.5886 19.1388 14.256 19.708C14.0905 19.9901 14.525 20.2451 14.6888 19.9631C15.0047 19.4242 15.0331 18.7267 14.7657 18.1659C14.5284 17.6659 14.0354 17.2994 13.5039 17.1795C13.0009 17.0646 12.4711 17.0258 11.9613 16.9531C11.0555 16.8231 10.1513 16.6913 9.24551 16.5613C8.99482 16.5258 8.74246 16.4903 8.49177 16.4532C7.84332 16.3569 7.3152 15.9735 6.73192 15.6982C5.76092 15.2404 4.68462 14.8334 3.60832 14.7303C3.28744 14.6999 3.28911 15.2066 3.60832 15.237V15.2337Z" fill="#C4C4C4"/>
<path d="M10.1513 20.2977H13.2916C13.696 20.2977 14.1189 20.3331 14.5233 20.2977C14.7356 20.2791 14.9712 20.1237 15.1617 20.0376C16.2815 19.5342 17.4012 19.0326 18.521 18.5292C19.502 18.0884 20.4831 17.6492 21.4641 17.2084C21.5042 17.1898 21.5443 17.1729 21.5861 17.1543C21.5944 17.1509 21.6045 17.1459 21.6128 17.1425C21.6112 17.1425 21.5142 17.1526 21.6229 17.1628C21.9036 17.1898 22.1493 17.2641 22.3281 17.5023C22.4084 17.6104 22.4652 17.7404 22.4886 17.8739C22.5003 17.9397 22.5036 18.0056 22.5003 18.0715C22.4969 18.1373 22.4301 18.2826 22.4468 18.3333C22.4552 18.3603 22.5437 18.2725 22.4719 18.3333C22.4384 18.362 22.3983 18.384 22.3616 18.4076L21.9605 18.6795L18.8703 20.7791L16.0542 22.6911C15.6497 22.9664 15.2436 23.2164 14.7673 23.3532C14.291 23.49 13.808 23.4917 13.3183 23.4917H8.06887C7.86498 23.4917 7.73629 23.4258 7.5324 23.3583C6.86222 23.137 6.19371 22.9157 5.52353 22.6961C4.85335 22.4766 4.20991 22.2621 3.55478 22.0459C3.24726 21.9445 3.11523 22.4343 3.42107 22.534C4.79987 22.9884 6.17867 23.4444 7.55747 23.8988C7.74632 23.9613 7.88169 23.9984 8.06887 23.9984H12.6615C13.0325 23.9984 13.4036 23.9984 13.7746 23.9984C14.5952 23.995 15.3874 23.7501 16.0692 23.2907C16.8497 22.7637 17.6285 22.2317 18.4073 21.703C19.5321 20.9395 20.6552 20.1761 21.78 19.4126L22.6891 18.7944C22.8863 18.661 22.9549 18.4431 22.9866 18.2066C23.0618 17.6306 22.7577 17.0445 22.2362 16.7945C21.9655 16.6645 21.6112 16.5935 21.3287 16.7185C21.2167 16.7675 21.1048 16.8182 20.9945 16.8689L19.5739 17.5056C18.3138 18.0715 17.0519 18.6373 15.7918 19.2032L14.5801 19.747C14.5367 19.7673 14.4916 19.7842 14.4498 19.8061C14.3462 19.8585 14.4815 19.7605 14.53 19.7926C14.4682 19.7521 14.2492 19.7926 14.179 19.7926H10.1496C9.82705 19.7926 9.82705 20.2994 10.1496 20.2994L10.1513 20.2977Z" fill="#C4C4C4"/>
<path d="M4.86173 15.0445C4.97872 11.8505 6.31239 8.78652 8.5686 6.54681C8.9814 6.13637 9.42262 5.75295 9.8889 5.405H9.63654C11.4148 6.25629 13.4838 6.25629 15.262 5.405H15.0097C15.9957 6.04178 16.8815 6.84071 17.6553 7.7393C19.0424 9.35405 19.9867 11.359 20.1355 13.5092C20.2341 14.9347 19.9934 16.3536 19.4903 17.6845C19.375 17.9886 19.8597 18.122 19.9733 17.8197C20.5817 16.2134 20.7989 14.4787 20.5583 12.7744C20.351 11.2999 19.7828 9.88948 18.9689 8.65139C18.3255 7.67173 17.5366 6.78835 16.6542 6.02151C16.3534 5.75971 16.0408 5.51141 15.7183 5.27832C15.6147 5.20231 15.5094 5.12968 15.4024 5.05705C15.2353 4.94557 15.1283 4.91179 14.9261 5.00638C13.3434 5.74113 11.4632 5.71917 9.89057 4.96584C9.81537 4.92868 9.71175 4.9101 9.63821 4.96584C7.13632 6.83733 5.33637 9.57194 4.66285 12.6511C4.49071 13.4365 4.3921 14.2388 4.36202 15.0428C4.35032 15.3688 4.8517 15.3688 4.8634 15.0428L4.86173 15.0445Z" fill="#C4C4C4"/>
<path d="M10.9051 3.36808C10.5758 2.97453 10.3118 2.51848 10.1396 2.03203C10.0327 1.72968 9.95411 1.41552 9.914 1.09797C9.89729 0.959468 9.82376 0.706107 10.0093 0.783805C10.3418 0.925687 10.6076 1.11486 10.9585 0.886838C11.0906 0.800695 11.2209 0.711175 11.3513 0.621654C11.4399 0.562536 11.4716 0.525377 11.5686 0.564226C11.8176 0.66557 12.0449 0.824342 12.2889 0.939199C12.6749 1.11993 12.9758 0.837855 13.2816 0.636856C13.4304 0.53889 13.5858 0.461192 13.7646 0.53889C13.8966 0.596318 14.017 0.716242 14.1306 0.800695C14.3028 0.930754 14.4816 1.01352 14.7022 0.947645C14.8359 0.907107 14.9646 0.82941 15.0916 0.770292C15.2804 0.680771 15.3389 0.62841 15.3222 0.893594C15.2988 1.2483 15.2236 1.59794 15.1066 1.93406C14.9178 2.47456 14.6019 2.96271 14.2025 3.36808C13.9752 3.59948 14.3295 3.95757 14.5568 3.72617C14.9495 3.32754 15.2654 2.85798 15.4827 2.34113C15.6297 1.99149 15.7317 1.62834 15.7852 1.25337C15.8253 0.969603 15.9022 0.608141 15.6949 0.371672C15.5161 0.168983 15.2554 0.143647 15.0197 0.248369C14.881 0.309176 14.7273 0.427411 14.5802 0.457814C14.4699 0.481461 14.3345 0.329445 14.2426 0.260193C14.0554 0.118311 13.8666 0.0118996 13.6242 0.00345422C13.3819 -0.00499113 13.1997 0.0895968 13.0125 0.21121C12.8855 0.293974 12.7384 0.432478 12.5964 0.48315C12.4928 0.52031 12.3875 0.427411 12.2922 0.376739C12.1301 0.292285 11.9713 0.206143 11.8076 0.125067C11.6053 0.0237231 11.4031 -0.00161298 11.1992 0.116622C11.0655 0.194319 10.9385 0.292285 10.8098 0.380117C10.6945 0.457814 10.641 0.530444 10.519 0.471327C10.3703 0.400386 10.2115 0.30242 10.0494 0.26526C9.71345 0.187563 9.39591 0.456125 9.38588 0.797317C9.37586 1.16047 9.46778 1.5574 9.56805 1.90366C9.76192 2.5776 10.1012 3.19411 10.5474 3.72785C10.7563 3.97615 11.109 3.61638 10.9017 3.36977L10.9051 3.36808Z" fill="#C4C4C4"/>
<path d="M14.7238 4.66356C14.7121 5.04022 14.4531 5.2294 14.1222 5.32568C13.7344 5.43884 13.3367 5.51485 12.9339 5.54694C12.4893 5.58241 12.0364 5.57228 11.5952 5.50641C11.2493 5.45573 10.8398 5.39831 10.5239 5.24291C9.9841 4.97604 10.056 4.02847 10.661 3.89334C10.8197 3.85787 10.9718 3.90348 11.1289 3.93219C11.3412 3.97104 11.5551 3.99976 11.7707 4.02171C12.2069 4.06394 12.6481 4.06563 13.086 4.02509C13.3133 4.00482 13.5389 3.97273 13.7628 3.93219C13.95 3.89841 14.1222 3.84774 14.3077 3.91699C14.6369 4.04029 14.7238 4.34433 14.7238 4.66525C14.7238 4.98617 15.2252 4.99124 15.2252 4.66525C15.2252 4.26494 15.1249 3.89503 14.8057 3.63323C14.4313 3.32582 14.0403 3.37142 13.5974 3.45081C13.0442 3.54877 12.476 3.57073 11.9144 3.5285C11.6637 3.50992 11.4147 3.47614 11.1674 3.42716C10.9501 3.38493 10.7462 3.35284 10.5273 3.40689C9.69999 3.60958 9.4025 4.70916 9.90221 5.36621C10.188 5.74119 10.661 5.84084 11.0972 5.93374C11.6236 6.04522 12.1651 6.0942 12.7033 6.07056C13.2414 6.04691 13.8297 5.95401 14.3662 5.78341C14.8726 5.62295 15.2085 5.20744 15.2252 4.66525C15.2352 4.33926 14.7338 4.33926 14.7238 4.66525V4.66356Z" fill="#C4C4C4"/>
<path d="M5.54694 2.70583C6.10682 3.06054 6.64329 3.50308 7.34188 3.45409C7.6143 3.43551 7.88672 3.4068 8.15913 3.3916C8.56191 3.36964 8.84603 3.55206 9.15688 3.77333C9.40757 3.95237 9.65659 4.13141 9.90728 4.30876C10.1713 4.49794 10.422 4.05878 10.1596 3.87129C9.94572 3.71759 9.7318 3.56557 9.51788 3.41187C9.23877 3.21256 8.97137 2.99973 8.62709 2.92204C7.93017 2.76326 7.20818 3.15513 6.55973 2.74806C6.3057 2.58929 6.05333 2.42714 5.80097 2.26499C5.52689 2.09101 5.27452 2.52848 5.54861 2.70246L5.54694 2.70583Z" fill="#C4C4C4"/>
<path d="M6.24381 6.29845C6.25718 6.26467 6.2037 6.37615 6.24047 6.30859C6.26386 6.26636 6.28225 6.22413 6.30732 6.1836C6.40759 6.01131 6.44603 5.96739 6.59143 5.81707C7.00424 5.39311 7.56913 5.13806 8.15407 5.00125C8.73901 4.86443 9.28552 4.85092 9.85542 4.87963C10.178 4.89483 10.1763 4.38811 9.85542 4.37291C8.4549 4.30366 6.72514 4.57729 5.90454 5.87787C5.84772 5.96739 5.79758 6.06367 5.76081 6.16333C5.64884 6.46905 6.13351 6.60248 6.24381 6.29845Z" fill="#C4C4C4"/>
<path d="M12.583 15.7083C12.436 15.7083 12.2889 15.7083 12.1418 15.7083C12.0115 15.7083 11.958 15.6576 11.9546 15.5242C11.9513 15.3215 11.953 15.1171 11.9546 14.9145C11.9546 14.8638 11.9396 14.8435 11.8895 14.8317C11.1892 14.6543 10.5942 14.2962 10.1096 13.7541C10.0811 13.722 10.0494 13.6899 10.0227 13.6561C9.93909 13.5497 9.94076 13.4787 10.036 13.3808C10.1614 13.2541 10.2901 13.1325 10.4187 13.0092C10.5491 12.8842 10.6795 12.7592 10.8098 12.6342C10.9569 12.4923 11.0321 12.4906 11.1892 12.6224C11.3831 12.7862 11.5702 12.9602 11.7892 13.0919C12.1351 13.3014 12.5011 13.4027 12.9056 13.3217C13.2315 13.2558 13.4103 13.048 13.4153 12.7322C13.417 12.6139 13.3735 12.5193 13.2917 12.4383C13.1262 12.2761 12.9206 12.1782 12.7067 12.1021C12.2755 11.9484 11.8443 11.7947 11.4432 11.5684C11.0822 11.3657 10.7563 11.1208 10.5324 10.761C9.9441 9.8219 10.2817 8.64969 11.2744 8.16324C11.4616 8.07203 11.6572 8.00109 11.8594 7.96055C11.9396 7.94535 11.958 7.91156 11.9546 7.83556C11.948 7.66327 11.9513 7.4893 11.9546 7.31532C11.9563 7.165 12.0232 7.09912 12.1719 7.09912C12.441 7.09912 12.7117 7.09912 12.9808 7.09912C13.1429 7.09912 13.2281 7.18526 13.2281 7.34741C13.2281 7.50619 13.2315 7.66665 13.2265 7.82542C13.2248 7.89298 13.2432 7.91832 13.3117 7.93352C13.8816 8.04669 14.378 8.30681 14.8058 8.70205C15.0248 8.90474 15.0248 9.00608 14.8209 9.22228C14.6069 9.45031 14.3964 9.68002 14.1824 9.90636C14.0571 10.0398 13.9702 10.0465 13.8298 9.93C13.6677 9.79657 13.5089 9.65806 13.3251 9.55503C13.0276 9.38781 12.7167 9.33883 12.3875 9.42328C12.3106 9.44355 12.2371 9.47395 12.1719 9.52125C11.9697 9.6682 11.9429 9.95365 12.1184 10.1344C12.2321 10.2509 12.3741 10.3219 12.5229 10.3776C12.8521 10.4992 13.1864 10.6107 13.5156 10.734C13.8833 10.8708 14.2443 11.0262 14.5585 11.2711C14.978 11.5988 15.2002 12.0261 15.2303 12.5616C15.2855 13.5683 14.6989 14.2929 13.9317 14.6408C13.7329 14.732 13.5256 14.7996 13.31 14.8401C13.2499 14.852 13.2248 14.8722 13.2265 14.9398C13.2315 15.1239 13.2281 15.308 13.2265 15.4921C13.2265 15.6509 13.1713 15.7066 13.0159 15.7066C12.8722 15.7066 12.7268 15.7066 12.583 15.7066V15.7083Z" fill="url(#paint0_linear_290_782)"/>
</g>
<defs>
<linearGradient id="paint0_linear_290_782" x1="9.96249" y1="11.4046" x2="15.2337" y2="11.4046" gradientUnits="userSpaceOnUse">
<stop stop-color="#9BCB9E"/>
<stop offset="1" stop-color="#78C1C4"/>
</linearGradient>
<clipPath id="clip0_290_782">
<rect width="23" height="24" fill="white"/>
</clipPath>
</defs>
</svg>
