<svg width="86" height="101" viewBox="0 0 86 101" fill="none" xmlns="http://www.w3.org/2000/svg">
<g opacity="0.1" clip-path="url(#clip0_290_797)">
<path d="M81.6837 69.0324L90.4494 71.9965C91.3148 72.2891 91.7784 73.2301 91.4849 74.0982L80.4407 106.759C80.1471 107.628 79.2076 108.094 78.3422 107.801L69.5765 104.837C68.7111 104.545 68.2475 103.604 68.541 102.736L79.5852 70.0745C79.8788 69.2063 80.8183 68.7398 81.6837 69.0324Z" fill="white"/>
<path d="M77.2695 74.9986C77.2232 74.9829 77.173 74.9789 77.1248 74.969C76.9995 74.9396 76.9802 74.9395 77.1306 74.971C77.0149 74.9513 76.9069 74.9277 76.7911 74.9079C76.1642 74.7993 75.5274 74.7198 74.8983 74.6557C72.6926 74.4334 70.4645 74.4103 68.2569 74.5558C66.7561 74.6494 65.2626 74.836 63.7804 75.0846C62.2982 75.3331 60.8235 75.6165 59.2858 75.381C58.6743 75.2841 58.059 75.16 57.4476 75.0438C52.0524 74.0403 46.6514 73.0348 41.2542 72.0371C40.2666 71.8519 39.2548 71.8717 38.2953 72.213C36.005 73.022 34.7462 75.5631 35.2359 77.9069C35.4808 79.0691 33.6813 79.4366 33.4422 78.2763C32.975 76.0565 33.6868 73.6278 35.2631 72.0149C36.6647 70.5757 38.796 69.8938 40.774 70.1038C42.6478 70.2979 44.5258 70.7843 46.3737 71.1312C49.6587 71.7443 52.9398 72.3496 56.2247 72.9627C57.1332 73.1342 58.0475 73.3076 58.958 73.4733C61.3133 73.9013 63.5856 73.2025 65.9233 72.9394C69.8142 72.5035 74.0106 72.3648 77.8539 73.2701C78.9994 73.5411 78.4052 75.2792 77.2656 75.0102L77.2695 74.9986Z" fill="white"/>
<path d="M48.7524 84.7331L37.8877 81.0593C36.4884 80.5862 34.9844 80.2133 33.6263 79.6183C32.9135 79.3062 32.2787 78.4969 31.7195 77.9782C28.43 74.9398 25.1385 71.9071 21.8489 68.8687C18.9667 66.2071 16.0825 63.5513 13.2003 60.8898C13.0831 60.7791 12.9639 60.6741 12.8409 60.5614C12.816 60.5401 12.7872 60.5109 12.7622 60.4896C12.7679 60.4915 13.0915 60.6397 12.7039 60.5474C11.7012 60.3118 10.7649 60.2796 9.86965 60.8882C9.46658 61.1656 9.11897 61.5457 8.88308 61.9765C8.76611 62.1891 8.67805 62.4114 8.61312 62.6415C8.54819 62.8716 8.61081 63.4486 8.49415 63.6031C8.43386 63.6861 8.22939 63.2809 8.40742 63.5738C8.48971 63.7115 8.60299 63.8338 8.70274 63.958L9.77469 65.3611L18.0279 76.186L25.5507 86.0463C26.6302 87.4649 27.745 88.7985 29.2341 89.8255C30.7231 90.8526 32.3922 91.4234 34.0863 91.9963L52.2481 98.1376C52.9535 98.3761 53.4752 98.3004 54.2591 98.307C56.8346 98.3312 59.4044 98.3534 61.978 98.3834C64.5516 98.4134 67.0269 98.4295 69.5445 98.4535C70.7261 98.4653 70.6141 100.302 69.4403 100.286C64.1424 100.233 58.8426 100.186 53.5447 100.134C52.8188 100.127 52.3073 100.097 51.6597 99.8777L35.7703 94.5048C34.4867 94.0707 33.2031 93.6367 31.9194 93.2026C29.0843 92.231 26.628 90.4632 24.8023 88.0878C22.714 85.3651 20.6373 82.6269 18.5568 79.9003C15.5519 75.9627 12.5528 72.0271 9.54794 68.0896L7.1203 64.9031C6.59296 64.2141 6.6089 63.3857 6.77362 62.5365C7.18223 60.4707 8.91515 58.8138 11.0095 58.5654C12.0972 58.4355 13.4054 58.6064 14.2374 59.3661C14.5679 59.6653 14.8965 59.9703 15.2193 60.2733L19.3947 64.1219C23.0974 67.5392 26.8059 70.9585 30.5086 74.3758L34.0691 77.661C34.1959 77.7814 34.3324 77.8922 34.4514 78.0165C34.7491 78.3175 34.3945 77.8228 34.1896 77.8763C34.4506 77.8094 35.161 78.2047 35.4038 78.2868L49.3446 83.0008C50.4605 83.3782 49.8721 85.1182 48.7562 84.7409L48.7524 84.7331Z" fill="white"/>
<path d="M73.1524 72.8825C76.4565 61.7774 75.4002 49.6955 70.195 39.3648C69.2434 37.4724 68.1622 35.6396 66.953 33.8993L67.8261 34.1945C60.6854 35.0375 53.5271 32.617 48.3634 27.6133L49.2365 27.9086C45.0856 28.9417 41.0934 30.649 37.3728 32.8294C30.6986 36.7517 25.1036 42.5319 22.0923 49.7416C20.0958 54.5216 19.2809 59.6754 19.4758 64.8345C19.5217 66.0135 17.69 65.9047 17.6479 64.7335C17.4084 58.5057 18.671 52.2947 21.4826 46.7238C23.9118 41.9026 27.5154 37.7242 31.7689 34.4248C35.1326 31.8134 38.8876 29.7027 42.831 28.1017C44.1758 27.5546 45.5453 27.0676 46.932 26.6445C47.3787 26.5048 47.8273 26.3785 48.2817 26.2542C48.9894 26.0669 49.3987 26.0761 49.9885 26.6375C54.611 31.0121 61.1414 33.1363 67.4571 32.3892C67.7605 32.3496 68.1405 32.407 68.3302 32.6845C74.813 42.0381 77.865 53.5344 76.6197 64.8962C76.3032 67.7947 75.7128 70.6652 74.8832 73.4613C74.5452 74.5945 72.8105 74.0079 73.1486 72.8748L73.1524 72.8825Z" fill="white"/>
<path d="M65.8028 25.7154C67.3988 24.7491 68.842 23.4919 70.0024 22.0229C70.7235 21.1097 71.3601 20.1228 71.8676 19.0793C72.0862 18.6232 72.6349 17.8392 71.9028 17.889C70.5874 17.9871 69.4484 18.3259 68.4989 17.1322C68.1422 16.682 67.7951 16.2221 67.448 15.7621C67.2102 15.4555 67.1435 15.2907 66.7631 15.3108C65.7838 15.3674 64.8131 15.6468 63.8355 15.7557C62.29 15.9247 61.5768 14.6041 60.752 13.5561C60.3512 13.0457 59.9036 12.597 59.1947 12.6546C58.6713 12.6974 58.1157 12.9684 57.6244 13.1255C56.8779 13.3707 56.1631 13.4457 55.4763 12.9614C55.0608 12.6658 54.7058 12.2484 54.335 11.8968C53.7856 11.3685 53.644 11.1203 53.3939 12.0504C53.063 13.2959 52.9172 14.5845 52.9316 15.8756C52.9574 17.9526 53.4834 19.9984 54.3946 21.8578C54.9123 22.9183 53.2707 23.7335 52.753 22.6729C51.8571 20.8446 51.3095 18.8626 51.158 16.8336C51.0551 15.4608 51.1241 14.0945 51.3745 12.7443C51.5652 11.7229 51.719 10.3917 52.7105 9.82216C53.5646 9.33533 54.496 9.55334 55.1897 10.1886C55.599 10.5597 55.9937 11.1456 56.4672 11.4221C56.8214 11.6323 57.4662 11.2687 57.8647 11.1384C58.677 10.8702 59.454 10.7257 60.3022 10.9802C61.1504 11.2347 61.6708 11.7726 62.1772 12.4092C62.5205 12.842 62.8685 13.4897 63.3012 13.8299C63.6165 14.0787 64.0887 13.8829 64.4771 13.8203C65.136 13.72 65.7854 13.6099 66.4461 13.5231C67.2635 13.4117 67.9925 13.5612 68.5607 14.2058C68.933 14.629 69.2587 15.114 69.6019 15.5662C69.9107 15.9679 70.0114 16.2799 70.5021 16.2196C71.0991 16.15 71.7622 15.9993 72.3662 16.0614C73.6186 16.1876 74.4054 17.4813 74.0439 18.6647C73.6569 19.9235 72.878 21.179 72.129 22.2507C70.6757 24.3382 68.786 26.0584 66.6224 27.3692C65.6113 27.9775 64.809 26.3295 65.8124 25.7251L65.8028 25.7154Z" fill="white"/>
<path d="M51.0864 25.6966C50.6895 27.0037 51.366 27.9564 52.3991 28.6742C53.6091 29.5164 54.897 30.2427 56.2533 30.8241C57.7501 31.466 59.3289 31.9611 60.9318 32.251C62.1876 32.4818 63.6709 32.7636 64.9442 32.5995C67.1217 32.3146 67.9733 28.9766 66.0371 27.8048C65.529 27.4972 64.9499 27.4759 64.373 27.3907C63.5936 27.2758 62.8201 27.1241 62.0487 26.9473C60.4905 26.582 58.9621 26.0717 57.4942 25.4202C56.7314 25.0847 55.9881 24.7105 55.2603 24.3093C54.652 23.9743 54.1152 23.5989 53.393 23.6197C52.1108 23.658 51.4571 24.6003 51.0844 25.7024C50.7118 26.8044 48.9712 26.2353 49.3498 25.1158C49.8146 23.7412 50.591 22.5882 51.9994 22.0626C53.6516 21.445 54.9517 22.0591 56.3918 22.8498C58.1919 23.8334 60.1323 24.5736 62.1241 25.0855C63.013 25.315 63.9138 25.4903 64.8264 25.6115C65.6272 25.7206 66.3698 25.849 67.0645 26.2907C69.6913 27.9545 69.4437 32.0785 66.9519 33.7502C65.5278 34.7035 63.7757 34.4924 62.1587 34.3012C60.2079 34.0681 58.2776 33.6028 56.4432 32.892C54.6088 32.1813 52.6814 31.174 51.0234 29.9606C49.4577 28.8171 48.778 26.9973 49.3498 25.1158C49.6936 23.9847 51.4282 24.5712 51.0844 25.7024L51.0864 25.6966Z" fill="white"/>
<path d="M85.1092 29.7101C82.7603 30.2731 80.3904 31.1652 78.0303 30.1797C77.1094 29.7972 76.2002 29.3799 75.2754 29.009C73.9074 28.4624 72.7126 28.7565 71.3802 29.1526C70.305 29.4742 69.2356 29.7977 68.1623 30.1134C67.029 30.4541 66.6717 28.6528 67.7972 28.3159C68.7158 28.0384 69.6324 27.7666 70.551 27.489C71.748 27.1311 72.9203 26.7131 74.2017 26.8491C76.7972 27.1192 78.84 29.3095 81.5562 28.6702C82.6194 28.4222 83.6808 28.1606 84.7422 27.899C85.8925 27.6222 86.2576 29.4197 85.1073 29.6965L85.1092 29.7101Z" fill="white"/>
<path d="M78.5264 41.2319C78.5193 41.1003 78.5749 41.5457 78.5262 41.2706C78.4943 41.0983 78.4797 40.9318 78.44 40.7632C78.2931 40.0543 78.2112 39.8585 77.8827 39.1722C76.9468 37.2334 75.2886 35.6967 73.4237 34.5426C71.5588 33.3884 69.6837 32.7027 67.6787 32.1346C66.5451 31.8094 67.1392 30.0713 68.2671 30.3945C73.1929 31.7951 78.8597 34.7584 80.1885 40.1846C80.2812 40.5585 80.3428 40.9477 80.3543 41.333C80.3867 42.5138 78.555 42.405 78.5264 41.2319Z" fill="white"/>
<path d="M45.5644 66.0939C45.0556 65.9218 44.5467 65.7498 44.0379 65.5777C43.5869 65.4252 43.4607 65.1886 43.6041 64.7265C43.8279 64.0266 44.071 63.3267 44.3121 62.6326C44.371 62.4586 44.3424 62.3714 44.1827 62.2721C41.9659 60.8439 40.3233 58.9182 39.2761 56.4893C39.215 56.3459 39.1424 56.1985 39.0891 56.0512C38.9236 55.588 39.0117 55.3464 39.4551 55.1214C40.0358 54.833 40.6223 54.566 41.2107 54.2931C41.8068 54.0164 42.403 53.7397 42.9991 53.463C43.6727 53.1478 43.9349 53.23 44.3254 53.8662C44.8059 54.6556 45.2515 55.472 45.8559 56.1806C46.8096 57.3045 47.9583 58.0807 49.4517 58.2755C50.6557 58.4305 51.5156 57.9263 51.8997 56.8475C52.0428 56.4435 52.0023 56.0678 51.8131 55.6936C51.429 54.9432 50.8315 54.3663 50.1797 53.855C48.8664 52.8228 47.553 51.7905 46.4281 50.544C45.4146 49.4257 44.5714 48.2034 44.2144 46.7059C43.2696 42.7928 45.7987 39.1623 49.7982 38.6532C50.5517 38.559 51.3106 38.5442 52.0573 38.6415C52.3525 38.6832 52.4553 38.5887 52.532 38.3238C52.7089 37.7243 52.9225 37.1308 53.1361 36.5373C53.3164 36.023 53.6242 35.875 54.1388 36.049C55.0697 36.3638 56.0064 36.6805 56.9374 36.9953C57.4982 37.185 57.6931 37.5805 57.5048 38.1373C57.3204 38.6826 57.1457 39.2375 56.944 39.7769C56.8597 40.0069 56.8939 40.1154 57.1133 40.2478C58.9536 41.3031 60.3689 42.7771 61.3902 44.6348C61.9123 45.587 61.7946 45.935 60.8381 46.4389C59.8332 46.9717 58.8379 47.5142 57.835 48.0411C57.2464 48.3527 56.9379 48.2742 56.5875 47.7098C56.1816 47.0619 55.7931 46.4006 55.2767 45.8317C54.4417 44.9094 53.4231 44.3775 52.1859 44.2824C51.8964 44.2621 51.6067 44.2804 51.3263 44.3666C50.456 44.6346 50.032 45.5836 50.4293 46.4095C50.6871 46.9427 51.0962 47.3525 51.5461 47.7179C52.544 48.5207 53.571 49.2945 54.5669 50.1031C55.6801 51.0031 56.7486 51.959 57.5512 53.1677C58.6221 54.7837 58.8949 56.5112 58.3772 58.385C57.3991 61.9065 54.5282 63.7085 51.4701 64.006C50.6761 64.0865 49.8807 64.0761 49.0877 63.9631C48.8658 63.9333 48.7556 63.9735 48.6829 64.2075C48.4865 64.8456 48.2611 65.4739 48.0416 66.1042C47.8572 66.6494 47.6017 66.7763 47.0639 66.5945C46.5667 66.4263 46.0636 66.2562 45.5663 66.0881L45.5644 66.0939Z" fill="white"/>
</g>
<defs>
<clipPath id="clip0_290_797">
<rect width="84" height="87" fill="white" transform="matrix(-0.947307 -0.320326 -0.320326 0.947307 107.442 26.9074)"/>
</clipPath>
</defs>
</svg>
