<svg width="98" height="108" viewBox="0 0 98 108" fill="none" xmlns="http://www.w3.org/2000/svg">
<g opacity="0.1">
<path d="M47.4643 102.2C48.0191 102.338 48.5738 102.477 49.1361 102.617C49.6301 102.74 49.8826 102.601 50.0133 102.109C50.2178 101.353 50.3996 100.591 50.5814 99.8292C50.6287 99.6392 50.7085 99.5784 50.9022 99.5782C53.7209 99.5704 56.3016 98.8012 58.6386 97.2287C58.7753 97.1336 58.9253 97.0499 59.0639 96.9472C59.4815 96.6316 59.5421 96.3562 59.2663 95.9081C58.9126 95.3196 58.5323 94.7405 58.1615 94.1558C57.785 93.5616 57.4065 92.9749 57.0357 92.3902C56.6136 91.72 56.3267 91.6405 55.6109 91.9867C54.7204 92.4185 53.8603 92.8902 52.9089 93.1777C51.4068 93.6347 49.9291 93.6699 48.4699 92.9834C47.2995 92.4335 46.8163 91.4898 47.0889 90.2987C47.1912 89.8561 47.4474 89.5406 47.8328 89.3219C48.615 88.8712 49.4734 88.6977 50.3585 88.6116C52.1343 88.4488 53.9044 88.2765 55.6363 87.8042C57.1935 87.3852 58.6536 86.7725 59.838 85.6472C62.9319 82.6895 62.7574 77.981 59.4485 75.2275C58.8271 74.7094 58.1562 74.2597 57.4266 73.9165C57.1378 73.7799 57.0997 73.6413 57.1793 73.3544C57.363 72.7142 57.5183 72.0588 57.6641 71.4091C57.8042 70.8468 57.6065 70.5392 57.0441 70.3991C56.0259 70.1453 55.0076 69.8916 53.9817 69.6359C53.3662 69.4825 52.9656 69.7297 52.816 70.33C52.6664 70.9304 52.5035 71.5193 52.371 72.1158C52.3161 72.3684 52.2231 72.4502 51.9515 72.439C49.6949 72.3286 47.5679 72.8316 45.582 73.9024C44.5643 74.4559 44.4696 74.8359 45.0364 75.8326C45.6298 76.8844 46.2137 77.942 46.8071 78.9938C47.1532 79.6127 47.4743 79.717 48.1142 79.4164C48.8547 79.0682 49.5838 78.7011 50.3794 78.4878C51.6594 78.145 52.877 78.2466 54.0513 78.8783C54.3211 79.0262 54.5738 79.2103 54.7735 79.4457C55.4027 80.1916 55.2364 81.2801 54.4067 81.7917C53.8713 82.1264 53.2655 82.2579 52.654 82.3153C51.2941 82.4607 49.9285 82.5642 48.5687 82.7096C47.0493 82.8798 45.5375 83.1164 44.1229 83.7404C42.2299 84.5681 40.9963 85.9555 40.3823 87.9333C39.2379 91.6512 40.7826 94.9094 43.354 96.9304C44.021 97.4598 44.7412 97.9056 45.5165 98.2602C45.7331 98.3626 45.8129 98.4632 45.7428 98.7121C45.5477 99.3979 45.3924 100.086 45.2277 100.779C45.08 101.372 45.2416 101.63 45.8268 101.776C46.3739 101.912 46.921 102.048 47.4681 102.185L47.4643 102.2Z" fill="white"/>
<path d="M79.5442 13.6351C54.4372 7.37806 29.041 21.0648 20.0554 44.6524L14.075 43.162L19.7069 56.2522L31.6497 47.7436L25.6293 46.1222C33.8591 25.276 56.3183 13.5288 78.6669 19.0984L79.9964 13.7639L79.5442 13.6351Z" fill="white"/>
<path d="M69.4532 57.753C68.805 59.6415 68.2993 61.5735 67.9399 63.5339C67.8245 64.1589 67.1011 64.5355 66.516 64.3897L54.4792 61.39C53.0126 61.0245 53.5807 58.7448 55.0473 59.1103L67.0841 62.11L65.6602 62.9658C66.0196 61.0054 66.5177 59.0714 67.1735 57.1848C67.3801 56.5826 67.9439 56.1662 68.5974 56.3291C69.175 56.473 69.6598 57.1507 69.4532 57.753Z" fill="white"/>
<path d="M51.7133 38.7083C51.5254 36.3855 51.1609 34.0913 50.654 31.8181C50.534 31.2959 50.7121 30.7753 51.1735 30.4787C54.5338 28.3622 59.3532 26.6739 63.2746 28.0062C64.3081 28.3607 65.9002 28.9673 66.0664 30.179C66.1294 30.6386 66.1146 31.1191 66.1358 31.5845L66.4309 37.6547C66.508 39.1912 66.5775 40.7259 66.6565 42.2548L64.4604 41.7075C66.4127 38.6994 68.3649 35.6912 70.3172 32.683C70.6207 32.2099 71.0841 32.0348 71.6273 32.1217C73.6713 32.4374 75.7614 33.4426 77.2819 34.8223C78.5725 35.9914 79.4645 37.5615 79.7716 39.2764C79.9356 40.2051 80.1646 41.6826 79.6999 42.5434C79.3983 43.1059 78.6009 43.6174 78.1511 44.0622C77.5741 44.6286 77.0142 45.2235 76.4772 45.8241C75.4618 46.9512 73.7815 45.3057 74.795 44.1862C75.8084 43.0667 76.7669 42.103 77.8375 41.143L77.5038 41.9961C77.7811 39.3615 76.8601 37.0981 74.5608 35.7018C73.4529 35.0303 72.3661 34.598 71.0611 34.3938L72.3713 33.8325C70.419 36.8407 68.4668 39.8489 66.5145 42.8571C65.896 43.8167 64.3744 43.5101 64.3184 42.3098C64.1217 38.2737 63.925 34.2377 63.7282 30.2016L64.3273 31.1983C60.8533 28.5892 55.7262 30.4107 52.3963 32.5025L52.9157 31.1631C53.4703 33.6338 53.8634 36.1369 54.0666 38.6572C54.1912 40.1652 51.8379 40.2164 51.719 38.7178L51.7133 38.7083Z" fill="white"/>
<path d="M84.5088 56.4771C82.7031 54.7196 80.8879 52.9678 79.0821 51.2103L75.5011 47.7351C74.8435 47.1031 74.2047 46.3628 73.4578 45.8297C72.5742 45.1978 71.592 44.9611 70.5661 44.7055L49.7829 39.526L51.0931 38.9647C51.002 39.1357 50.9262 39.3105 50.8485 39.4929C50.7328 39.7627 50.9053 39.3295 50.8257 39.5518C50.784 39.6544 50.748 39.7665 50.7139 39.871C50.6229 40.1389 50.5395 40.4086 50.4714 40.6822C50.1854 41.8296 50.0572 43.0567 50.5671 44.2169C51.4213 46.165 53.6288 46.699 55.4982 47.1649L62.55 48.9223C63.0364 49.0435 63.4432 49.5162 63.4436 50.0328C63.4455 50.1221 63.4475 50.2113 63.4571 50.3025C63.4858 50.6083 63.4533 50.3177 63.4628 50.3766C63.4914 50.5209 63.5219 50.6576 63.5505 50.802C63.7677 51.647 64.0131 52.1844 64.6101 52.9627C66.6881 55.7001 70.5825 56.5899 73.8479 56.9598C74.4842 57.0296 74.8343 57.8271 74.7037 58.3837C74.5332 59.0676 73.9085 59.3074 73.2797 59.2395C69.3705 58.7979 65.151 57.5607 62.6737 54.288C61.7991 53.1338 61.0724 51.5807 61.0789 50.0972L61.9724 51.2077L54.3962 49.3196C52.1545 48.761 49.867 47.8357 48.6859 45.7093C47.8395 44.1828 47.7375 42.4222 48.044 40.7391C48.2275 39.7437 48.5648 38.714 49.039 37.8152C49.2818 37.3592 49.8552 37.1308 50.3492 37.2539L66.6034 41.3047C68.5943 41.8008 70.6535 42.1849 72.6028 42.816C75.4089 43.7332 77.5553 46.4553 79.6157 48.4539C81.794 50.5625 83.9704 52.6787 86.1562 54.7892C87.2416 55.8425 85.6036 57.5247 84.5183 56.4713L84.5088 56.4771Z" fill="white"/>
<path d="M48.7607 42.8799C47.4442 42.5922 46.239 43.7688 46.6027 45.0943C46.8408 45.985 47.5837 46.275 48.3816 46.4739L57.0444 48.6328C58.511 48.9983 57.9429 51.2779 56.4763 50.9124L50.1539 49.3368C49.2345 49.1077 48.3188 48.8956 47.4031 48.6513C45.5641 48.1607 44.1517 46.5416 44.1882 44.5814C44.2432 41.8994 46.7433 40.0286 49.3307 40.5927C50.8068 40.9202 50.2387 43.1998 48.7626 42.8723L48.7607 42.8799Z" fill="white"/>
<path d="M46.5025 51.9442C47.9311 52.3002 49.3673 52.6581 50.7959 53.0141C52.0953 53.338 54.0542 54.1894 54.8242 52.5249C55.23 51.6414 54.855 50.5552 53.9582 50.138C53.4946 49.9257 52.9323 49.8501 52.4459 49.7289C50.8122 49.3217 49.1803 48.907 47.5446 48.5074C46.7011 48.2972 45.8579 48.5068 45.3856 49.301C44.7652 50.3329 45.3778 51.6316 46.5025 51.9442C47.9596 52.3477 47.3915 54.6273 45.9344 54.2239C44.1467 53.7218 42.8045 52.1444 42.7917 50.2527C42.7771 48.4653 43.9421 46.8348 45.6417 46.2656C46.6709 45.9249 47.6644 46.116 48.6751 46.3679L51.8286 47.1538C52.6037 47.3469 53.3826 47.5249 54.1463 47.7314C55.6889 48.1481 56.9263 49.3362 57.2466 50.9334C57.5974 52.6995 56.7536 54.5957 55.1188 55.4232C54.0195 55.9805 52.8969 55.9509 51.7419 55.6631C49.8041 55.1802 47.8664 54.6973 45.9287 54.2144C44.4621 53.8489 45.0302 51.5692 46.4968 51.9347L46.5025 51.9442Z" fill="white"/>
<path d="M45.1103 57.5307C46.5389 57.8867 47.9751 58.2447 49.4037 58.6007C50.7031 58.9245 52.662 59.7759 53.432 58.1115C53.8378 57.228 53.4628 56.1418 52.566 55.7246C52.1023 55.5122 51.5401 55.4366 51.0537 55.3154C49.42 54.9083 47.7881 54.4935 46.1524 54.094C45.3089 53.8837 44.4657 54.0933 43.9934 54.8876C43.373 55.9194 43.9856 57.2181 45.1103 57.5307C46.5674 57.9342 45.9993 60.2139 44.5421 59.8104C42.7544 59.3084 41.4123 57.731 41.3995 55.8392C41.3849 54.0519 42.5499 52.4214 44.2494 51.8522C45.2787 51.5114 46.2722 51.7025 47.2828 51.9544L50.4364 52.7403C51.2115 52.9335 51.9904 53.1115 52.7541 53.3179C54.2967 53.7347 55.5341 54.9228 55.8544 56.5199C56.2052 58.2861 55.3614 60.1823 53.7266 61.0097C52.6273 61.5671 51.5047 61.5375 50.3497 61.2496C48.4119 60.7667 46.4742 60.2838 44.5364 59.8009C43.0698 59.4354 43.638 57.1557 45.1046 57.5212L45.1103 57.5307Z" fill="white"/>
<path d="M43.7186 63.1157C45.1472 63.4717 46.5834 63.8296 48.012 64.1857C49.3114 64.5095 51.2703 65.3609 52.0402 63.6964C52.446 62.8129 52.0711 61.7268 51.1742 61.3095C50.7106 61.0972 50.1483 61.0216 49.662 60.9004C48.0282 60.4932 46.3963 60.0785 44.7607 59.6789C43.9172 59.4687 43.074 59.6783 42.6016 60.4726C41.9813 61.5044 42.5939 62.8031 43.7186 63.1157C45.1757 63.5192 44.6076 65.7989 43.1504 65.3954C41.3627 64.8933 40.0206 63.3159 40.0078 61.4242C39.9932 59.6369 41.1582 58.0063 42.8577 57.4371C43.8869 57.0964 44.8805 57.2875 45.8911 57.5394L49.0447 58.3253C49.8198 58.5184 50.5987 58.6964 51.3624 58.9029C52.905 59.3196 54.1424 60.5077 54.4627 62.1049C54.8135 63.871 53.9696 65.7672 52.3349 66.5947C51.2355 67.152 50.113 67.1225 48.9579 66.8346C47.0202 66.3517 45.0825 65.8688 43.1447 65.3859C41.6781 65.0204 42.2462 62.7407 43.7128 63.1062L43.7186 63.1157Z" fill="white"/>
<path d="M81.3443 72.8962C79.4093 73.5682 77.4838 74.2344 75.5488 74.9063C75.2659 75.0053 74.9924 75.0985 74.7095 75.1975C74.1265 75.3993 73.3969 74.9914 73.254 74.3989C73.092 73.7533 73.4335 73.1604 74.0525 72.9434C75.9875 72.2715 77.913 71.6053 79.848 70.9334C80.1309 70.8344 80.4044 70.7411 80.6873 70.6422C81.2703 70.4404 81.9999 70.8482 82.1428 71.4407C82.3048 72.0864 81.9633 72.6793 81.3443 72.8962Z" fill="white"/>
<path d="M105.009 55.6051L86.3303 50.9502L87.7542 50.0944L81.2586 76.1588L80.4028 74.7349L92.242 77.6854C93.7086 78.0509 93.1405 80.3306 91.6739 79.9651L79.8347 77.0146C79.2191 76.8612 78.8255 76.2062 78.9789 75.5907L85.4745 49.5263C85.6279 48.9108 86.2829 48.5171 86.8984 48.6705L105.577 53.3254C107.043 53.6909 106.475 55.9706 105.009 55.6051Z" fill="white"/>
<path d="M74.3371 94.9588C90.5129 90.6447 104.212 78.8128 110.432 62.4697L116.739 64.0415L110.807 50.2468L98.224 59.2174L104.571 60.9203C99.295 74.2864 88.4719 84.099 75.5003 88.4126" fill="white"/>
<path d="M66.1075 62.2068C71.8568 67.0859 76.0558 74.0725 77.0282 81.6029C77.9375 88.6736 76.7545 96.7241 72.6657 102.67C67.0552 110.836 56.8062 113.52 47.4349 111.451C38.8141 109.545 30.8285 103.729 28.5598 94.8907C25.9805 84.8373 30.0695 74.0002 36.9037 66.559C37.9001 65.4756 38.9592 64.4644 40.0791 63.5006C41.1991 62.5367 42.9116 64.15 41.7613 65.1385C34.3413 71.5297 29.2581 81.207 30.2741 91.1857C30.6835 95.1779 32.2306 99.0097 34.9622 101.975C37.6938 104.939 41.3594 107.136 45.2237 108.406C53.4216 111.103 63.1931 110.011 69.2017 103.324C74.1379 97.8315 75.4235 89.7904 74.7915 82.6435C74.7646 82.2978 74.7207 81.956 74.6786 81.6065C74.6672 81.523 74.6576 81.4318 74.6461 81.3482C74.6996 81.7813 74.6424 81.3634 74.608 81.1127C74.545 80.75 74.4745 80.3854 74.3944 80.0265C73.8703 77.6279 73.0386 75.298 71.903 73.1183C70.2729 70.0083 68.1074 67.2007 65.5377 64.817C65.1975 64.4982 64.8458 64.1926 64.4866 63.8852C63.3349 62.9041 64.9785 61.2314 66.1246 62.203L66.1075 62.2068Z" fill="white"/>
</g>
</svg>
