<svg width="26" height="26" viewBox="0 0 26 26" fill="none" xmlns="http://www.w3.org/2000/svg">
<path d="M14.3194 23.1352C14.1783 23.1352 14.0371 23.1352 13.894 23.1352C13.7683 23.1352 13.7161 23.0869 13.7142 22.9612C13.7103 22.7678 13.7122 22.5744 13.7142 22.381C13.7142 22.3327 13.6987 22.3134 13.6523 22.3018C12.9774 22.1316 12.405 21.7932 11.939 21.2769C11.9119 21.2459 11.881 21.2169 11.8539 21.1841C11.7727 21.0835 11.7746 21.0139 11.8674 20.923C11.9873 20.8031 12.113 20.6871 12.2368 20.5691C12.3625 20.4492 12.4882 20.3313 12.6119 20.2133C12.7531 20.0779 12.8266 20.076 12.9774 20.2017C13.165 20.3583 13.3429 20.5227 13.5537 20.6484C13.8863 20.8476 14.2382 20.9443 14.6288 20.8669C14.9421 20.805 15.1142 20.6078 15.12 20.3061C15.1219 20.194 15.0794 20.1031 15.0001 20.0277C14.8396 19.873 14.6443 19.7802 14.4374 19.7067C14.0216 19.5616 13.6078 19.4147 13.2211 19.1981C12.873 19.0047 12.5597 18.7707 12.3432 18.4304C11.7785 17.537 12.1014 16.4193 13.0586 15.9571C13.2385 15.8701 13.4261 15.8024 13.6214 15.7638C13.6987 15.7483 13.7161 15.7173 13.7142 15.6439C13.7084 15.4795 13.7103 15.3132 13.7142 15.1488C13.7142 15.0057 13.7799 14.9438 13.923 14.9438C14.1821 14.9438 14.4413 14.9438 14.7023 14.9438C14.859 14.9438 14.9402 15.027 14.9402 15.1798C14.9402 15.3325 14.944 15.4834 14.9402 15.6342C14.9382 15.698 14.9556 15.7231 15.0214 15.7367C15.5686 15.845 16.0482 16.0925 16.4601 16.4676C16.6709 16.661 16.6709 16.7577 16.4756 16.9627C16.2706 17.1793 16.0675 17.3978 15.8626 17.6144C15.7427 17.742 15.6595 17.7478 15.5242 17.6376C15.3675 17.5099 15.2148 17.3784 15.0369 17.2798C14.7507 17.1212 14.4529 17.0729 14.1338 17.1541C14.0603 17.1735 13.9888 17.2025 13.9269 17.2469C13.7316 17.3881 13.7064 17.6588 13.8747 17.8309C13.983 17.9431 14.1203 18.0108 14.2634 18.0611C14.5805 18.1771 14.9015 18.2834 15.2186 18.3995C15.5725 18.531 15.9206 18.6779 16.2222 18.9119C16.6264 19.2232 16.8391 19.6293 16.8681 20.1398C16.9203 21.099 16.3557 21.7874 15.6189 22.1181C15.4275 22.2051 15.2283 22.2689 15.0214 22.3076C14.9634 22.3192 14.9382 22.3385 14.9402 22.4023C14.946 22.5783 14.9421 22.7523 14.9402 22.9283C14.9402 23.0791 14.886 23.1313 14.7371 23.1313C14.5979 23.1313 14.4587 23.1313 14.3194 23.1313V23.1352Z" fill="url(#paint0_linear_290_738)"/>
<path d="M11.9216 0C18.3107 0 23.5782 4.7957 24.3227 10.9837H25.8445L23.7136 13.7838L21.3602 11.032L22.8994 11.003C22.1724 5.51698 17.4927 1.36136 11.8055 1.36136V0.0038675L11.9216 0Z" fill="#82E2B3"/>
<path d="M11.705 11.1729C11.7475 11.664 11.7533 12.1572 11.7224 12.6483C11.7127 12.805 11.8635 12.9384 12.0124 12.9384H15.0755C15.4487 12.9384 15.4487 12.3583 15.0755 12.3583H12.0124L12.3025 12.6483C12.3334 12.1572 12.3296 11.664 12.2851 11.1729C12.2716 11.0162 12.1613 10.8828 11.995 10.8828C11.8481 10.8828 11.6914 11.0162 11.705 11.1729Z" fill="#C4C4C4"/>
<path d="M17.0924 7.66908C17.2761 7.12377 17.5004 6.59585 17.7576 6.08148C17.8175 5.96352 17.8059 5.82816 17.7131 5.72953C17.0344 5.02178 15.9805 4.3295 14.9614 4.41459C14.6926 4.43779 14.2749 4.48807 14.1627 4.76846C14.1202 4.87482 14.0951 4.99084 14.0622 5.10107L13.629 6.53784C13.5188 6.90139 13.4105 7.26493 13.3003 7.62654H13.8591C13.571 6.78923 13.2829 5.95192 12.9948 5.1146C12.9503 4.98311 12.8497 4.91349 12.7144 4.90189C12.2058 4.85548 11.645 4.97151 11.1983 5.21129C10.8193 5.41433 10.5118 5.73727 10.3359 6.12982C10.2411 6.34253 10.098 6.68287 10.158 6.91686C10.1966 7.06962 10.3571 7.23979 10.4384 7.37322C10.5428 7.54339 10.6414 7.71936 10.7342 7.89533C10.9102 8.226 11.411 7.93207 11.2351 7.60334C11.0591 7.2746 10.887 6.98647 10.6878 6.69254L10.7168 6.91686C10.8077 6.26905 11.1635 5.78175 11.7978 5.5845C12.1033 5.48975 12.3895 5.45107 12.7144 5.48008L12.434 5.26737C12.7221 6.10468 13.0102 6.94199 13.2984 7.77931C13.3892 8.04616 13.7721 8.06357 13.8572 7.77931C14.1453 6.82404 14.4335 5.86876 14.7216 4.91349L14.5186 5.11654C15.5067 4.69885 16.6263 5.44141 17.2993 6.14142L17.2548 5.78948C16.9744 6.34833 16.7308 6.92459 16.5316 7.51632C16.4117 7.87019 16.9725 8.02296 17.0904 7.67102L17.0924 7.66908Z" fill="#C4C4C4"/>
<path d="M8.17394 9.96841C8.71153 9.65514 9.25104 9.3438 9.78862 9.03054L10.8541 8.41174C11.0494 8.29958 11.2467 8.16035 11.4574 8.0772C11.7069 7.97858 11.9564 7.98051 12.2174 7.98051H17.5062L17.2258 7.7678C17.2374 7.81421 17.2452 7.86062 17.2529 7.90896C17.2645 7.98051 17.249 7.86642 17.2548 7.92443C17.2587 7.95151 17.2606 7.98051 17.2626 8.00758C17.2684 8.0772 17.2722 8.14682 17.2722 8.21643C17.2722 8.50843 17.2297 8.81009 17.0382 9.05761C16.7172 9.47337 16.1565 9.4695 15.6808 9.4695H13.8862C13.7625 9.4695 13.6368 9.55845 13.6058 9.68221C13.6 9.70348 13.5942 9.72475 13.5865 9.74602C13.5614 9.81757 13.5865 9.74989 13.5807 9.76343C13.5652 9.7963 13.5498 9.82724 13.5343 9.86012C13.4318 10.0496 13.3409 10.1637 13.1514 10.3145C12.4901 10.8463 11.5039 10.827 10.6994 10.7206C10.5428 10.6994 10.4113 10.8695 10.4094 11.0107C10.4094 11.1847 10.5447 11.2795 10.6994 11.3008C11.6624 11.4284 12.7473 11.3839 13.5362 10.7477C13.8147 10.5234 14.0815 10.1947 14.1686 9.83884L13.8882 10.0516H15.8161C16.3866 10.0516 16.9899 9.96647 17.3999 9.52751C17.6938 9.21231 17.8233 8.79655 17.8504 8.375C17.8659 8.12554 17.8465 7.85869 17.7866 7.61503C17.7557 7.49127 17.6319 7.40232 17.5062 7.40232H13.3699C12.8633 7.40232 12.347 7.37138 11.8423 7.40619C11.1152 7.4584 10.4384 7.98245 9.82536 8.33826C9.17756 8.7134 8.52975 9.09048 7.88001 9.46563C7.55708 9.6532 7.84907 10.154 8.17201 9.96647L8.17394 9.96841Z" fill="#C4C4C4"/>
<path d="M17.5506 8.84487C17.8833 8.85454 18.1018 9.20842 17.9355 9.50428C17.8252 9.70346 17.6299 9.7286 17.4269 9.7286H15.2224C14.8492 9.7286 14.8492 10.3087 15.2224 10.3087H16.8313C17.0653 10.3087 17.2973 10.3126 17.5313 10.3087C18.0012 10.301 18.4363 9.99739 18.5446 9.52555C18.6916 8.87968 18.2043 8.28215 17.5506 8.26281C17.1774 8.25315 17.1774 8.83327 17.5506 8.84294V8.84487Z" fill="#C4C4C4"/>
<path d="M17.5507 11.1516C17.1872 11.1516 16.8217 11.1516 16.4581 11.1516C16.1275 11.1516 15.6073 11.2386 15.5222 10.7938C15.4777 10.5579 15.6324 10.3201 15.8722 10.2737C15.996 10.2505 16.1352 10.2659 16.259 10.2659C16.6747 10.2659 17.0905 10.264 17.5062 10.2659C17.7209 10.2659 17.9104 10.3665 17.9761 10.585C18.0631 10.8693 17.8388 11.1438 17.5507 11.1516C17.1775 11.1613 17.1775 11.7414 17.5507 11.7317C18.009 11.7182 18.4248 11.4204 18.5408 10.9679C18.651 10.5405 18.4692 10.0803 18.096 9.84243C17.8698 9.69934 17.6203 9.6858 17.3631 9.6858H16.5606C16.3634 9.6858 16.1661 9.68193 15.9708 9.6858C15.5763 9.69354 15.2089 9.90431 15.0368 10.2679C14.8473 10.6701 14.9363 11.1748 15.2785 11.4707C15.5087 11.6698 15.7794 11.7298 16.0733 11.7298C16.5664 11.7298 17.0595 11.7298 17.5526 11.7298C17.9258 11.7298 17.9258 11.1496 17.5526 11.1496L17.5507 11.1516Z" fill="#C4C4C4"/>
<path d="M17.5507 12.5732C17.1872 12.5732 16.8217 12.5732 16.4581 12.5732C16.1275 12.5732 15.6073 12.6602 15.5222 12.2155C15.4777 11.9796 15.6324 11.7417 15.8722 11.6953C15.996 11.6721 16.1352 11.6876 16.259 11.6876C16.6747 11.6876 17.0905 11.6856 17.5062 11.6876C17.7209 11.6876 17.9104 11.7881 17.9761 12.0066C18.0631 12.2909 17.8388 12.5655 17.5507 12.5732C17.1775 12.5829 17.1775 13.163 17.5507 13.1533C18.009 13.1398 18.4248 12.842 18.5408 12.3895C18.651 11.9621 18.4692 11.5019 18.096 11.2641C17.8698 11.121 17.6203 11.1074 17.3631 11.1074H16.5606C16.3634 11.1074 16.1661 11.1036 15.9708 11.1074C15.5763 11.1152 15.2089 11.3259 15.0368 11.6895C14.8473 12.0917 14.9363 12.5964 15.2785 12.8923C15.5087 13.0915 15.7794 13.1514 16.0733 13.1514C16.5664 13.1514 17.0595 13.1514 17.5526 13.1514C17.9258 13.1514 17.9258 12.5713 17.5526 12.5713L17.5507 12.5732Z" fill="#C4C4C4"/>
<path d="M17.5507 13.9946C17.1872 13.9946 16.8217 13.9946 16.4581 13.9946C16.1275 13.9946 15.6073 14.0816 15.5222 13.6369C15.4777 13.4009 15.6324 13.1631 15.8722 13.1167C15.996 13.0935 16.1352 13.1089 16.259 13.1089C16.6747 13.1089 17.0905 13.107 17.5062 13.1089C17.7209 13.1089 17.9104 13.2095 17.9761 13.428C18.0631 13.7123 17.8388 13.9869 17.5507 13.9946C17.1775 14.0043 17.1775 14.5844 17.5507 14.5747C18.009 14.5612 18.4248 14.2634 18.5408 13.8109C18.651 13.3835 18.4692 12.9233 18.096 12.6855C17.8698 12.5424 17.6203 12.5288 17.3631 12.5288H16.5606C16.3634 12.5288 16.1661 12.525 15.9708 12.5288C15.5763 12.5366 15.2089 12.7473 15.0368 13.1109C14.8473 13.5131 14.9363 14.0178 15.2785 14.3137C15.5087 14.5128 15.7794 14.5728 16.0733 14.5728C16.5664 14.5728 17.0595 14.5728 17.5526 14.5728C17.9258 14.5728 17.9258 13.9927 17.5526 13.9927L17.5507 13.9946Z" fill="#C4C4C4"/>
<path d="M7.95157 14.0912C8.37506 14.3677 8.79662 14.6423 9.22011 14.9188C9.28199 14.9594 9.34194 14.9981 9.40382 15.0387C9.53144 15.1219 9.73062 15.0677 9.80024 14.9343C9.87759 14.7893 9.83118 14.6268 9.69581 14.5379C9.27232 14.2614 8.85077 13.9868 8.42727 13.7102C8.36539 13.6696 8.30545 13.6309 8.24357 13.5903C8.11594 13.5072 7.91677 13.5613 7.84715 13.6948C7.7698 13.8398 7.81621 14.0022 7.95157 14.0912Z" fill="#C4C4C4"/>
<path d="M3.31446 8.5352H8.06761L7.77754 8.24514V14.8779L8.06761 14.5878H5.05483C4.68162 14.5878 4.68162 15.168 5.05483 15.168H8.06761C8.22424 15.168 8.35767 15.0345 8.35767 14.8779V8.24514C8.35767 8.08851 8.22424 7.95508 8.06761 7.95508H3.31446C2.94124 7.95508 2.94124 8.5352 3.31446 8.5352Z" fill="#C4C4C4"/>
<path d="M8.31318 19.7956C4.69514 17.7961 2.11939 14.1433 1.60501 9.85617H0L2.24508 6.90527L4.72415 9.8059L3.10173 9.8349C3.56776 13.3524 5.57499 16.3497 8.42534 18.1578" fill="#82E2B3"/>
<path d="M12.2406 12.4397C10.5718 13.2654 9.14853 14.6887 8.46592 16.4349C7.82585 18.0747 7.62861 20.0742 8.25321 21.743C9.10986 24.0345 11.4052 25.2895 13.7741 25.3533C15.9534 25.4113 18.2139 24.4947 19.2852 22.5126C20.5035 20.2579 20.1709 17.4172 18.9778 15.2263C18.8037 14.9072 18.6104 14.6017 18.3996 14.3039C18.1888 14.0061 17.6822 14.2903 17.8987 14.5959C19.2949 16.5702 19.935 19.1924 19.0957 21.5226C18.7593 22.4546 18.1598 23.2803 17.3283 23.8276C16.4968 24.3748 15.4874 24.6823 14.4857 24.7558C12.3605 24.9124 10.0845 24.0674 9.04411 22.1065C8.18939 20.4957 8.3615 18.4924 8.93969 16.8177C8.96676 16.7365 8.9977 16.6572 9.02864 16.576C9.03637 16.5567 9.04411 16.5354 9.05184 16.5161C9.01317 16.6166 9.05184 16.5199 9.07505 16.4619C9.11179 16.3788 9.15046 16.2956 9.19107 16.2144C9.45986 15.671 9.79827 15.1625 10.2005 14.708C10.7767 14.0602 11.4632 13.5168 12.2213 13.0991C12.3218 13.0431 12.4243 12.9909 12.5287 12.9386C12.8633 12.7723 12.5693 12.2734 12.2367 12.4378L12.2406 12.4397Z" fill="#C4C4C4"/>
<defs>
<linearGradient id="paint0_linear_290_738" x1="11.7978" y1="19.0395" x2="16.8701" y2="19.0395" gradientUnits="userSpaceOnUse">
<stop stop-color="#8DCC9A"/>
<stop offset="1" stop-color="#5DC4C6"/>
</linearGradient>
</defs>
</svg>
