<svg width="1440" height="1024" viewBox="0 0 1440 1024" fill="none" xmlns="http://www.w3.org/2000/svg">
<g opacity="0.5">
<path d="M2023.12 1038.6C2031.63 1044.31 2035.12 1055.12 2031.55 1064.73L1991.27 1173.22C1988.46 1180.78 1989.79 1189.25 1994.77 1195.59L2066.3 1286.57C2072.63 1294.63 2072.61 1305.99 2066.25 1314.03L1994.41 1404.75C1989.4 1411.08 1988.04 1419.55 1990.83 1427.12L2030.73 1535.75C2034.27 1545.37 2030.74 1556.17 2022.2 1561.84L1925.84 1625.93C1919.13 1630.4 1915.22 1638.04 1915.53 1646.1L1919.91 1761.74C1920.3 1771.99 1913.61 1781.16 1903.74 1783.92L1792.29 1815.1C1784.52 1817.27 1778.44 1823.33 1776.24 1831.09L1744.68 1942.43C1741.88 1952.29 1732.69 1958.95 1722.44 1958.52L1606.81 1953.73C1598.76 1953.4 1591.1 1957.28 1586.61 1963.98L1522.19 2060.12C1516.48 2068.63 1505.68 2072.12 1496.06 2068.56L1387.58 2028.27C1380.02 2025.46 1371.54 2026.79 1365.2 2031.77L1274.22 2103.3C1266.16 2109.63 1254.81 2109.61 1246.77 2103.25L1156.04 2031.41C1149.72 2026.4 1141.24 2025.04 1133.67 2027.83L1025.05 2067.73C1015.42 2071.27 1004.63 2067.74 998.949 2059.2L934.86 1962.84C930.394 1956.13 922.756 1952.22 914.696 1952.53L799.053 1956.91C788.807 1957.3 779.633 1950.61 776.871 1940.74L745.696 1829.29C743.523 1821.52 737.467 1815.44 729.707 1813.24L618.368 1781.68C608.503 1778.88 601.845 1769.69 602.269 1759.44L607.06 1643.82C607.394 1635.76 603.512 1628.11 596.812 1623.62L500.676 1559.19C492.159 1553.48 488.668 1542.68 492.238 1533.07L532.524 1424.58C535.332 1417.02 534.005 1408.54 529.02 1402.2L457.497 1311.22C451.161 1303.16 451.18 1291.81 457.545 1283.77L529.384 1193.04C534.391 1186.72 535.749 1178.24 532.968 1170.67L493.059 1062.04C489.524 1052.42 493.051 1041.63 501.588 1035.95L597.948 971.861C604.664 967.394 608.572 959.756 608.266 951.697L603.879 836.054C603.491 825.807 610.182 816.632 620.056 813.87L731.504 782.695C739.271 780.523 745.349 774.466 747.549 766.707L779.112 655.368C781.908 645.504 791.106 638.846 801.351 639.27L916.978 644.06C925.036 644.394 932.688 640.512 937.178 633.812L1001.6 537.677C1007.31 529.159 1018.12 525.669 1027.73 529.238L1136.22 569.524C1143.78 572.332 1152.25 571.004 1158.59 566.02L1249.57 494.498C1257.63 488.161 1268.99 488.181 1277.03 494.545L1367.75 566.385C1374.08 571.391 1382.55 572.748 1390.12 569.967L1498.75 530.059C1508.37 526.523 1519.17 530.051 1524.84 538.589L1588.93 634.948C1593.4 641.664 1601.04 645.573 1609.1 645.267L1724.74 640.88C1734.99 640.491 1744.16 647.181 1746.92 657.056L1778.1 768.504C1780.27 776.271 1786.33 782.349 1794.09 784.548L1905.42 816.112C1915.29 818.909 1921.95 828.107 1921.52 838.351L1916.73 953.978C1916.4 962.036 1920.28 969.688 1926.98 974.178L2023.12 1038.6Z" stroke="url(#paint0_linear_12_247)"/>
<path d="M1938.51 1067.57C1946.06 1072.63 1949.15 1082.21 1945.99 1090.73L1910.17 1187.16C1907.67 1193.9 1908.86 1201.45 1913.3 1207.11L1976.87 1287.97C1982.49 1295.12 1982.47 1305.18 1976.83 1312.31L1912.97 1392.96C1908.51 1398.59 1907.3 1406.14 1909.78 1412.89L1945.25 1509.45C1948.39 1517.98 1945.26 1527.55 1937.69 1532.58L1852.04 1589.55C1846.06 1593.53 1842.57 1600.34 1842.84 1607.52L1846.74 1710.31C1847.09 1719.4 1841.16 1727.53 1832.41 1729.98L1733.34 1757.69C1726.42 1759.62 1721 1765.02 1719.04 1771.94L1690.98 1870.91C1688.51 1879.65 1680.35 1885.55 1671.27 1885.17L1568.49 1880.92C1561.31 1880.62 1554.49 1884.08 1550.49 1890.05L1493.22 1975.5C1488.16 1983.05 1478.58 1986.15 1470.06 1982.98L1373.63 1947.17C1366.89 1944.67 1359.34 1945.86 1353.69 1950.3L1272.82 2013.87C1265.67 2019.49 1255.61 2019.47 1248.48 2013.83L1167.83 1949.97C1162.2 1945.51 1154.65 1944.3 1147.9 1946.78L1051.34 1982.25C1042.81 1985.39 1033.24 1982.26 1028.21 1974.69L971.244 1889.04C967.263 1883.06 960.455 1879.57 953.272 1879.84L850.478 1883.74C841.396 1884.09 833.264 1878.16 830.815 1869.41L803.104 1770.34C801.168 1763.42 795.77 1758 788.854 1756.04L689.886 1727.98C681.142 1725.51 675.24 1717.35 675.617 1708.27L679.874 1605.49C680.172 1598.31 676.712 1591.49 670.74 1587.49L585.287 1530.22C577.737 1525.16 574.643 1515.58 577.807 1507.06L613.617 1410.63C616.119 1403.89 614.936 1396.34 610.494 1390.69L546.918 1309.82C541.302 1302.67 541.319 1292.61 546.96 1285.48L610.818 1204.83C615.28 1199.2 616.49 1191.65 614.011 1184.9L578.537 1088.34C575.403 1079.81 578.53 1070.24 586.097 1065.21L671.751 1008.24C677.736 1004.26 681.22 997.455 680.947 990.272L677.048 887.478C676.703 878.396 682.634 870.264 691.386 867.815L790.451 840.103C797.374 838.167 802.791 832.769 804.752 825.853L832.808 726.886C835.286 718.142 843.44 712.239 852.52 712.616L955.299 716.874C962.482 717.172 969.302 713.712 973.304 707.74L1030.57 622.286C1035.63 614.736 1045.21 611.642 1053.73 614.806L1150.16 650.617C1156.9 653.119 1164.45 651.936 1170.11 647.494L1250.98 583.918C1258.12 578.301 1268.19 578.319 1275.31 583.96L1355.96 647.818C1361.59 652.28 1369.14 653.489 1375.89 651.01L1472.45 615.537C1480.98 612.403 1490.55 615.53 1495.58 623.097L1552.55 708.751C1556.53 714.736 1563.34 718.22 1570.52 717.947L1673.31 714.047C1682.4 713.702 1690.53 719.634 1692.98 728.386L1720.69 827.45C1722.62 834.373 1728.02 839.79 1734.94 841.751L1833.91 869.807C1842.65 872.285 1848.55 880.439 1848.18 889.519L1843.92 992.299C1843.62 999.482 1847.08 1006.3 1853.05 1010.3L1938.51 1067.57Z" stroke="url(#paint1_linear_12_247)"/>
<path d="M1853.88 1096.5C1860.46 1100.91 1863.15 1109.26 1860.4 1116.69L1829.06 1201.07C1826.87 1206.99 1827.9 1213.62 1831.8 1218.58L1887.43 1289.34C1892.33 1295.57 1892.31 1304.35 1887.4 1310.56L1831.52 1381.13C1827.6 1386.08 1826.54 1392.71 1828.72 1398.63L1859.76 1483.12C1862.49 1490.56 1859.76 1498.9 1853.17 1503.28L1778.22 1553.13C1772.96 1556.63 1769.91 1562.6 1770.14 1568.91L1773.56 1658.85C1773.86 1666.77 1768.69 1673.86 1761.06 1676L1674.37 1700.24C1668.3 1701.94 1663.54 1706.68 1661.82 1712.76L1637.27 1799.35C1635.11 1806.98 1628 1812.12 1620.08 1811.79L1530.15 1808.07C1523.85 1807.81 1517.86 1810.85 1514.34 1816.09L1464.24 1890.86C1459.83 1897.44 1451.48 1900.14 1444.05 1897.38L1359.67 1866.05C1353.75 1863.85 1347.12 1864.89 1342.16 1868.79L1271.39 1924.42C1265.17 1929.31 1256.39 1929.3 1250.18 1924.38L1179.61 1868.51C1174.66 1864.59 1168.03 1863.53 1162.11 1865.7L1077.62 1896.74C1070.18 1899.47 1061.84 1896.75 1057.45 1890.15L1007.61 1815.2C1004.11 1809.95 998.136 1806.89 991.829 1807.13L901.884 1810.54C893.967 1810.84 886.876 1805.67 884.742 1798.04L860.495 1711.36C858.795 1705.28 854.055 1700.52 847.982 1698.8L761.386 1674.25C753.763 1672.09 748.617 1664.98 748.945 1657.07L752.671 1567.14C752.932 1560.83 749.894 1554.84 744.651 1551.33L669.879 1501.22C663.297 1496.81 660.6 1488.46 663.358 1481.03L694.692 1396.65C696.889 1390.74 695.85 1384.1 691.949 1379.14L636.322 1308.38C631.425 1302.15 631.44 1293.38 636.358 1287.16L692.233 1216.6C696.151 1211.65 697.213 1205.02 695.037 1199.09L663.997 1114.61C661.264 1107.17 663.991 1098.83 670.588 1094.44L745.535 1044.59C750.79 1041.1 753.849 1035.12 753.61 1028.81L750.197 938.869C749.897 930.951 755.067 923.861 762.698 921.726L849.38 897.48C855.458 895.779 860.214 891.039 861.935 884.967L886.485 798.37C888.646 790.747 895.754 785.601 903.671 785.929L993.603 789.656C999.909 789.917 1005.9 786.879 1009.41 781.635L1059.52 706.863C1063.93 700.281 1072.28 697.584 1079.71 700.342L1164.09 731.676C1170 733.874 1176.64 732.835 1181.6 728.934L1252.36 673.305C1258.59 668.408 1267.36 668.424 1273.58 673.343L1344.14 729.217C1349.09 733.136 1355.72 734.198 1361.65 732.021L1446.13 700.982C1453.57 698.249 1461.91 700.976 1466.3 707.573L1516.15 782.519C1519.64 787.774 1525.62 790.833 1531.93 790.594L1621.87 787.182C1629.79 786.882 1636.88 792.052 1639.01 799.682L1663.26 886.364C1664.96 892.443 1669.7 897.199 1675.77 898.92L1762.37 923.47C1769.99 925.631 1775.14 932.739 1774.81 940.656L1771.08 1030.59C1770.82 1036.89 1773.86 1042.88 1779.1 1046.4L1853.88 1096.5Z" stroke="url(#paint2_linear_12_247)"/>
<path d="M1769.26 1125.47C1774.88 1129.23 1777.18 1136.35 1774.83 1142.69L1747.97 1215.01C1746.08 1220.11 1746.97 1225.82 1750.33 1230.09L1798.01 1290.75C1802.19 1296.06 1802.18 1303.54 1797.98 1308.84L1750.09 1369.33C1746.71 1373.59 1745.8 1379.3 1747.67 1384.4L1774.28 1456.82C1776.61 1463.16 1774.28 1470.28 1768.66 1474.02L1704.42 1516.75C1699.89 1519.76 1697.26 1524.9 1697.46 1530.33L1700.39 1607.43C1700.64 1614.18 1696.23 1620.23 1689.73 1622.05L1615.43 1642.83C1610.19 1644.3 1606.1 1648.38 1604.62 1653.61L1583.57 1727.83C1581.73 1734.34 1575.67 1738.73 1568.91 1738.45L1491.83 1735.25C1486.4 1735.03 1481.24 1737.64 1478.22 1742.16L1435.27 1806.25C1431.51 1811.86 1424.38 1814.16 1418.05 1811.81L1345.72 1784.95C1340.63 1783.06 1334.91 1783.95 1330.64 1787.31L1269.99 1835C1264.68 1839.17 1257.19 1839.16 1251.89 1834.96L1191.41 1787.07C1187.15 1783.7 1181.44 1782.78 1176.34 1784.66L1103.92 1811.26C1097.57 1813.59 1090.46 1811.27 1086.72 1805.64L1043.99 1741.4C1040.98 1736.87 1035.83 1734.24 1030.4 1734.45L953.309 1737.37C946.555 1737.63 940.507 1733.22 938.686 1726.71L917.903 1652.41C916.439 1647.18 912.358 1643.08 907.129 1641.6L832.904 1620.56C826.401 1618.71 822.012 1612.65 822.292 1605.9L825.486 1528.81C825.711 1523.38 823.094 1518.23 818.579 1515.2L754.489 1472.25C748.875 1468.49 746.574 1461.37 748.927 1455.03L775.785 1382.71C777.677 1377.61 776.783 1371.9 773.424 1367.63L725.742 1306.97C721.565 1301.66 721.578 1294.18 725.774 1288.88L773.666 1228.39C777.04 1224.13 777.955 1218.42 776.081 1213.32L749.475 1140.9C747.144 1134.56 749.47 1127.44 755.098 1123.7L819.337 1080.98C823.862 1077.97 826.496 1072.82 826.29 1067.39L823.366 990.292C823.11 983.538 827.52 977.491 834.028 975.67L908.327 954.887C913.561 953.423 917.656 949.342 919.138 944.113L940.181 869.887C942.024 863.385 948.087 858.996 954.84 859.275L1031.92 862.469C1037.35 862.694 1042.51 860.078 1045.54 855.563L1088.49 791.473C1092.25 785.859 1099.37 783.558 1105.71 785.911L1178.03 812.768C1183.13 814.66 1188.84 813.766 1193.11 810.407L1253.76 762.725C1259.08 758.548 1266.56 758.562 1271.86 762.758L1332.35 810.65C1336.61 814.024 1342.32 814.938 1347.42 813.064L1419.83 786.459C1426.18 784.128 1433.29 786.453 1437.04 792.081L1479.76 856.321C1482.77 860.846 1487.92 863.48 1493.35 863.274L1570.45 860.349C1577.2 860.093 1583.25 864.504 1585.07 871.012L1605.85 945.311C1607.31 950.544 1611.4 954.64 1616.62 956.122L1690.85 977.165C1697.35 979.008 1701.74 985.071 1701.46 991.824L1698.27 1068.91C1698.04 1074.34 1700.66 1079.49 1705.17 1082.52L1769.26 1125.47Z" stroke="url(#paint3_linear_12_247)"/>
<path d="M1684.65 1154.44C1689.3 1157.55 1691.2 1163.45 1689.26 1168.69L1666.88 1228.96C1665.29 1233.24 1666.04 1238.03 1668.86 1241.61L1708.59 1292.15C1712.05 1296.55 1712.04 1302.74 1708.57 1307.13L1668.65 1357.53C1665.83 1361.11 1665.06 1365.9 1666.63 1370.17L1688.8 1430.52C1690.73 1435.77 1688.81 1441.66 1684.15 1444.76L1630.61 1480.36C1626.82 1482.89 1624.61 1487.2 1624.78 1491.76L1627.22 1556.01C1627.43 1561.6 1623.78 1566.6 1618.4 1568.11L1556.48 1585.43C1552.09 1586.65 1548.66 1590.08 1547.41 1594.46L1529.88 1656.32C1528.35 1661.7 1523.33 1665.33 1517.75 1665.1L1453.51 1662.44C1448.95 1662.25 1444.63 1664.44 1442.09 1668.23L1406.3 1721.64C1403.19 1726.29 1397.29 1728.19 1392.05 1726.24L1331.78 1703.86C1327.51 1702.27 1322.71 1703.02 1319.13 1705.84L1268.59 1745.58C1264.19 1749.03 1258 1749.02 1253.61 1745.55L1203.21 1705.64C1199.63 1702.81 1194.84 1702.04 1190.57 1703.61L1130.22 1725.79C1124.97 1727.71 1119.08 1725.79 1115.98 1721.13L1080.38 1667.6C1077.85 1663.8 1073.54 1661.59 1068.98 1661.77L1004.73 1664.21C999.145 1664.42 994.14 1660.77 992.633 1655.38L975.314 1593.47C974.086 1589.08 970.663 1585.64 966.278 1584.4L904.422 1566.86C899.041 1565.34 895.409 1560.32 895.64 1554.73L898.302 1490.49C898.491 1485.94 896.297 1481.61 892.511 1479.08L839.101 1443.29C834.455 1440.17 832.551 1434.28 834.498 1429.03L856.88 1368.76C858.467 1364.49 857.716 1359.7 854.899 1356.12L815.164 1305.57C811.707 1301.18 811.718 1294.98 815.19 1290.6L855.101 1240.19C857.931 1236.62 858.697 1231.83 857.126 1227.55L834.955 1167.2C833.026 1161.95 834.95 1156.06 839.607 1152.97L893.141 1117.36C896.936 1114.84 899.145 1110.52 898.973 1105.97L896.535 1041.72C896.323 1036.13 899.973 1031.12 905.36 1029.62L967.275 1012.3C971.664 1011.07 975.099 1007.65 976.343 1003.26L993.878 941.407C995.404 936.026 1000.42 932.394 1006.01 932.625L1070.25 935.286C1074.8 935.475 1079.13 933.281 1081.66 929.494L1117.45 876.086C1120.57 871.44 1126.46 869.536 1131.71 871.483L1191.98 893.864C1196.25 895.45 1201.04 894.701 1204.62 891.884L1255.17 852.149C1259.57 848.692 1265.76 848.703 1270.15 852.175L1320.55 892.086C1324.12 894.915 1328.91 895.682 1333.19 894.11L1393.54 871.939C1398.79 870.01 1404.68 871.935 1407.77 876.592L1443.38 930.126C1445.9 933.921 1450.22 936.13 1454.77 935.957L1519.02 933.52C1524.61 933.308 1529.62 936.958 1531.12 942.344L1548.44 1004.26C1549.67 1008.65 1553.09 1012.08 1557.48 1013.33L1619.33 1030.86C1624.71 1032.39 1628.35 1037.41 1628.12 1042.99L1625.45 1107.23C1625.27 1111.79 1627.46 1116.11 1631.25 1118.65L1684.65 1154.44Z" stroke="url(#paint4_linear_12_247)"/>
<path d="M1600.04 1183.4C1603.72 1185.87 1605.23 1190.54 1603.69 1194.69L1585.78 1242.9C1584.5 1246.35 1585.11 1250.22 1587.38 1253.12L1619.17 1293.55C1621.91 1297.03 1621.9 1301.94 1619.15 1305.41L1587.22 1345.73C1584.94 1348.62 1584.32 1352.49 1585.59 1355.94L1603.32 1404.22C1604.85 1408.38 1603.33 1413.04 1599.64 1415.49L1556.81 1443.98C1553.75 1446.01 1551.96 1449.5 1552.1 1453.18L1554.05 1504.58C1554.22 1509 1551.33 1512.96 1547.07 1514.16L1497.53 1528.01C1493.99 1529.01 1491.21 1531.77 1490.21 1535.31L1476.18 1584.8C1474.97 1589.06 1471 1591.93 1466.58 1591.75L1415.19 1589.62C1411.51 1589.47 1408.02 1591.24 1405.97 1594.3L1377.33 1637.02C1374.87 1640.7 1370.2 1642.21 1366.05 1640.67L1317.83 1622.76C1314.38 1621.48 1310.51 1622.09 1307.62 1624.36L1267.18 1656.15C1263.7 1658.89 1258.8 1658.88 1255.33 1656.13L1215 1624.2C1212.12 1621.92 1208.25 1621.3 1204.79 1622.57L1156.52 1640.3C1152.36 1641.83 1147.7 1640.31 1145.24 1636.62L1116.76 1593.79C1114.72 1590.73 1111.23 1588.94 1107.56 1589.08L1056.16 1591.03C1051.73 1591.2 1047.77 1588.31 1046.58 1584.05L1032.72 1534.51C1031.73 1530.97 1028.97 1528.19 1025.43 1527.19L975.941 1513.16C971.681 1511.95 968.805 1507.98 968.989 1503.56L971.118 1452.17C971.27 1448.49 969.498 1445 966.44 1442.95L923.713 1414.31C920.034 1411.85 918.527 1407.18 920.069 1403.03L937.974 1354.81C939.255 1351.36 938.649 1347.49 936.374 1344.6L904.586 1304.16C901.849 1300.68 901.858 1295.78 904.607 1292.31L936.536 1251.98C938.821 1249.1 939.44 1245.23 938.171 1241.77L920.434 1193.5C918.907 1189.34 920.431 1184.68 924.118 1182.22L966.944 1153.74C970.009 1151.7 971.794 1148.22 971.655 1144.54L969.705 1093.14C969.537 1088.71 972.426 1084.75 976.691 1083.56L1026.22 1069.7C1029.77 1068.71 1032.54 1065.95 1033.55 1062.41L1047.57 1012.92C1048.78 1008.66 1052.76 1005.79 1057.18 1005.97L1108.57 1008.1C1112.25 1008.25 1115.74 1006.48 1117.79 1003.42L1146.42 960.693C1148.89 957.014 1153.56 955.507 1157.71 957.049L1205.92 974.953C1209.37 976.234 1213.24 975.629 1216.14 973.354L1256.57 941.566C1260.05 938.829 1264.96 938.838 1268.43 941.587L1308.75 973.516C1311.64 975.801 1315.51 976.42 1318.96 975.151L1367.24 957.414C1371.4 955.887 1376.06 957.41 1378.51 961.098L1407 1003.92C1409.04 1006.99 1412.52 1008.77 1416.2 1008.63L1467.6 1006.68C1472.02 1006.52 1475.98 1009.41 1477.18 1013.67L1491.03 1063.2C1492.03 1066.75 1494.79 1069.52 1498.33 1070.53L1547.82 1084.55C1552.08 1085.76 1554.95 1089.74 1554.77 1094.16L1552.64 1145.55C1552.49 1149.23 1554.26 1152.72 1557.32 1154.77L1600.04 1183.4Z" stroke="url(#paint5_linear_12_247)"/>
<path d="M1515.43 1212.37C1518.14 1214.19 1519.25 1217.63 1518.12 1220.69L1504.69 1256.85C1503.71 1259.48 1504.17 1262.43 1505.91 1264.63L1529.75 1294.96C1531.77 1297.53 1531.76 1301.14 1529.73 1303.7L1505.79 1333.94C1504.05 1336.14 1503.57 1339.09 1504.54 1341.72L1517.84 1377.93C1518.97 1380.99 1517.85 1384.43 1515.13 1386.23L1483.01 1407.6C1480.67 1409.15 1479.31 1411.81 1479.42 1414.61L1480.88 1453.15C1481.01 1456.42 1478.88 1459.34 1475.73 1460.22L1438.59 1470.61C1435.88 1471.36 1433.77 1473.47 1433.01 1476.17L1422.48 1513.28C1421.59 1516.42 1418.67 1518.54 1415.41 1518.4L1376.86 1516.81C1374.06 1516.69 1371.4 1518.04 1369.84 1520.37L1348.37 1552.42C1346.55 1555.13 1343.11 1556.24 1340.05 1555.1L1303.89 1541.67C1301.26 1540.7 1298.31 1541.16 1296.11 1542.89L1265.78 1566.73C1263.21 1568.75 1259.6 1568.74 1257.04 1566.72L1226.8 1542.77C1224.6 1541.03 1221.65 1540.56 1219.02 1541.53L1182.81 1554.83C1179.75 1555.95 1176.31 1554.83 1174.51 1552.11L1153.14 1519.99C1151.59 1517.66 1148.93 1516.3 1146.13 1516.41L1107.58 1517.87C1104.32 1517.99 1101.4 1515.86 1100.52 1512.72L1090.13 1475.57C1089.38 1472.87 1087.27 1470.76 1084.57 1469.99L1047.46 1459.47C1044.32 1458.58 1042.2 1455.65 1042.34 1452.39L1043.93 1413.85C1044.05 1411.05 1042.7 1408.38 1040.37 1406.82L1008.32 1385.35C1005.61 1383.53 1004.5 1380.09 1005.64 1377.03L1019.07 1340.87C1020.04 1338.24 1019.58 1335.29 1017.85 1333.09L994.007 1302.76C991.99 1300.2 991.996 1296.58 994.022 1294.03L1017.97 1263.78C1019.71 1261.58 1020.18 1258.64 1019.21 1256.01L1005.91 1219.8C1004.79 1216.73 1005.91 1213.3 1008.63 1211.49L1040.75 1190.13C1043.08 1188.57 1044.44 1185.92 1044.33 1183.12L1042.87 1144.57C1042.75 1141.31 1044.88 1138.39 1048.02 1137.51L1085.17 1127.12C1087.87 1126.36 1089.98 1124.25 1090.75 1121.56L1101.27 1084.44C1102.16 1081.3 1105.09 1079.18 1108.35 1079.32L1146.89 1080.92C1149.69 1081.03 1152.35 1079.68 1153.92 1077.35L1175.39 1045.31C1177.21 1042.6 1180.65 1041.49 1183.71 1042.62L1219.87 1056.05C1222.5 1057.03 1225.44 1056.56 1227.65 1054.83L1257.98 1030.99C1260.54 1028.97 1264.16 1028.98 1266.71 1031.01L1296.96 1054.95C1299.16 1056.69 1302.1 1057.17 1304.73 1056.2L1340.94 1042.9C1344.01 1041.77 1347.44 1042.89 1349.25 1045.61L1370.61 1077.73C1372.17 1080.07 1374.82 1081.42 1377.62 1081.32L1416.17 1079.86C1419.43 1079.73 1422.35 1081.86 1423.23 1085.01L1433.62 1122.15C1434.38 1124.85 1436.48 1126.97 1439.18 1127.73L1476.3 1138.25C1479.44 1139.14 1481.55 1142.07 1481.42 1145.33L1479.82 1183.87C1479.71 1186.68 1481.06 1189.34 1483.39 1190.9L1515.43 1212.37Z" stroke="url(#paint6_linear_12_247)"/>
</g>
<defs>
<linearGradient id="paint0_linear_12_247" x1="2032.34" y1="1050.05" x2="491.448" y2="1547.75" gradientUnits="userSpaceOnUse">
<stop stop-color="white"/>
<stop offset="1" stop-color="#5AE1A4"/>
</linearGradient>
<linearGradient id="paint1_linear_12_247" x1="1946.74" y1="1077.7" x2="577.053" y2="1520.09" gradientUnits="userSpaceOnUse">
<stop stop-color="white"/>
<stop offset="1" stop-color="#5AE1A4"/>
</linearGradient>
<linearGradient id="paint2_linear_12_247" x1="1861.11" y1="1105.31" x2="662.64" y2="1492.41" gradientUnits="userSpaceOnUse">
<stop stop-color="white"/>
<stop offset="1" stop-color="#5AE1A4"/>
</linearGradient>
<linearGradient id="paint3_linear_12_247" x1="1775.51" y1="1132.96" x2="748.245" y2="1464.76" gradientUnits="userSpaceOnUse">
<stop stop-color="white"/>
<stop offset="1" stop-color="#5AE1A4"/>
</linearGradient>
<linearGradient id="paint4_linear_12_247" x1="1689.9" y1="1160.61" x2="833.851" y2="1437.11" gradientUnits="userSpaceOnUse">
<stop stop-color="white"/>
<stop offset="1" stop-color="#5AE1A4"/>
</linearGradient>
<linearGradient id="paint5_linear_12_247" x1="1604.3" y1="1188.26" x2="919.457" y2="1409.46" gradientUnits="userSpaceOnUse">
<stop stop-color="white"/>
<stop offset="1" stop-color="#5AE1A4"/>
</linearGradient>
<linearGradient id="paint6_linear_12_247" x1="1518.69" y1="1215.91" x2="1005.06" y2="1381.81" gradientUnits="userSpaceOnUse">
<stop stop-color="white"/>
<stop offset="1" stop-color="#5AE1A4"/>
</linearGradient>
</defs>
</svg>
